<svg width="357" height="651" fill="none" xmlns="http://www.w3.org/2000/svg"><g clip-path="url('#clip0_112_4')"><path d="M-502-121H862v705.852L180 651l-682-66.148V-121Z" fill="#FFE108"/><path d="M-501-140H863v705.852L181 632l-682-66.148V-140Z" fill="url('#paint0_radial_112_4')"/><g clip-path="url('#clip1_112_4')"><path d="M1.395 403h115.21a.398.398 0 0 0 .395-.401.4.4 0 0 0-.395-.402H1.902c.441-1.718 2.15-7.697 5.85-13.762 4.006-6.564 11.243-14.579 22.974-15.492 22.591-1.757 33.1 13.7 34.095 16.616a.39.39 0 0 0 .618.184c.066-.053 6.77-5.345 13.932-3.875 4.292.881 7.913 3.992 10.76 9.243a.394.394 0 0 0 .668.04c.016-.024 1.73-2.403 4.454-2.658 1.906-.177 3.865.702 5.832 2.616a.39.39 0 0 0 .559-.013.405.405 0 0 0-.013-.567c-2.144-2.085-4.318-3.04-6.46-2.835-2.314.22-3.934 1.727-4.632 2.516-2.924-5.162-6.628-8.232-11.017-9.132-6.568-1.345-12.55 2.551-14.16 3.72-1.841-3.946-12.675-18.369-34.695-16.657-12.071.937-19.496 9.159-23.598 15.889-4.43 7.263-6.042 14.408-6.058 14.479a.405.405 0 0 0 .077.34.395.395 0 0 0 .309.151h-.002Z" fill="#fff"/></g><g clip-path="url('#clip2_112_4')"><path d="M354.516 166H213.484a.48.48 0 0 1-.484-.479c0-.263.218-.479.484-.479h140.412c-.541-2.051-2.631-9.187-7.161-16.426-4.905-7.835-13.763-17.401-28.124-18.49-27.655-2.097-40.519 16.352-41.737 19.832a.486.486 0 0 1-.756.219c-.081-.063-8.287-6.38-17.055-4.625-5.254 1.052-9.687 4.765-13.172 11.032a.478.478 0 0 1-.395.246.486.486 0 0 1-.423-.198c-.019-.028-2.117-2.868-5.452-3.173-2.333-.211-4.732.839-7.139 3.123a.487.487 0 0 1-.684-.015.476.476 0 0 1 .016-.678c2.625-2.489 5.285-3.628 7.908-3.384 2.832.264 4.815 2.063 5.67 3.003 3.58-6.16 8.113-9.825 13.487-10.899 8.04-1.605 15.361 3.045 17.333 4.44 2.254-4.71 15.516-21.924 42.471-19.881 14.777 1.119 23.866 10.931 28.888 18.965 5.422 8.669 7.396 17.196 7.416 17.281a.486.486 0 0 1-.473.586h.002Z" fill="#fff"/></g><path d="m406.202 368.683-174.565-.69a27.835 27.835 0 0 1-.124-3.125c.232-14.519 11.665-26.073 25.489-25.853 6.522.105 12.419 2.807 16.812 7.157l.605.599.228-.82c4.168-14.943 17.912-25.788 34.046-25.53 13.341.213 24.809 7.97 30.462 19.168l.171.338.372-.072a21.221 21.221 0 0 1 4.451-.395c6.996.112 13.155 3.598 17.049 8.915l.403.551.404-.55c4.617-6.293 12.005-10.33 20.293-10.198 13.706.219 24.654 11.722 24.43 25.708a25.848 25.848 0 0 1-.526 4.797Z" fill="#F3F3F3" stroke="#fff"/><path d="M265.859 171.862c-48.05-51.812-125.934-51.812-173.956 0-48.05 51.811-48.05 135.792 0 187.573l73.541 79.298c7.445 8.027 19.486 8.027 26.902 0l73.541-79.298c48.051-51.812 48.051-135.792 0-187.573h-.028ZM183.21 352.107c-49.291 2.706-89.756-40.957-87.275-94.106 2.143-45.487 36.433-82.46 78.618-84.771 49.29-2.676 89.755 40.956 87.274 94.106-2.143 45.487-36.433 82.46-78.617 84.771Z" fill="#2B4C94"/><path d="m62.462 200.818-121.848-.481a19.305 19.305 0 0 1-.073-2.034c.16-10.08 8.095-18.089 17.677-17.936 4.52.072 8.609 1.945 11.656 4.962l.605.599.228-.819c2.898-10.389 12.453-17.928 23.668-17.749 9.274.148 17.246 5.54 21.176 13.326l.171.338.372-.073c.997-.195 2.025-.29 3.083-.273 4.843.077 9.109 2.491 11.806 6.175l.403.55.404-.55c3.203-4.365 8.326-7.164 14.072-7.072 9.501.152 17.096 8.127 16.94 17.83a17.955 17.955 0 0 1-.34 3.207Z" fill="#fff" stroke="#fff"/><path d="M265.923 164.583c-48.065-48.045-125.972-48.045-174.01 0-48.064 48.045-48.064 125.921 0 173.938l73.565 73.533c7.447 7.444 19.491 7.444 26.909 0l73.564-73.533c48.065-48.045 48.065-125.921 0-173.938h-.028Zm-82.675 167.142c-49.306 2.51-89.783-37.979-87.3-87.264 2.143-42.181 36.443-76.466 78.641-78.609 49.306-2.481 89.783 37.979 87.301 87.265-2.144 42.18-36.444 76.466-78.642 78.608Z" fill="#E83770"/><path d="M129.035 241.665c-1.239.47-2.258 1.105-3.139 1.934-.881.829-1.542 1.768-1.982 2.901-.468 1.105-.689 2.348-.689 3.674s.221 2.541.689 3.646a8.239 8.239 0 0 0 1.982 2.901c.854.829 1.9 1.464 3.139 1.934 1.239.47 2.616.718 4.186.718h2.808v-3.95h-2.671a6.119 6.119 0 0 1-2.202-.415 4.966 4.966 0 0 1-1.653-1.105 4.894 4.894 0 0 1-1.018-1.657c-.248-.636-.358-1.326-.358-2.045 0-.718.11-1.436.358-2.071a5.066 5.066 0 0 1 1.018-1.658c.441-.47.992-.829 1.653-1.105.66-.276 1.376-.387 2.202-.387h2.671v-3.978h-2.808c-1.57 0-2.947.249-4.158.718l-.028-.055ZM197.119 242.167c-1.06-.542-2.231-.813-3.515-.813h-8.117v17.954c0 .677-.558 1.218-1.256 1.218a1.245 1.245 0 0 1-1.255-1.191v-12.646c0-1.165-.279-2.139-.809-2.979-.558-.839-1.283-1.516-2.204-1.977-.92-.487-1.952-.731-3.068-.731s-2.148.244-3.069.731c-.92.488-1.673 1.138-2.203 1.977-.558.84-.837 1.841-.837 2.979v7.555c0 .271-.056.487-.195.704-.14.217-.307.379-.53.487a1.546 1.546 0 0 1-.698.163c-.223 0-.446-.054-.641-.163a1.403 1.403 0 0 1-.502-.487c-.112-.217-.196-.433-.196-.704v-7.555c0-1.165-.279-2.139-.837-2.979-.558-.839-1.283-1.516-2.203-1.977a6.854 6.854 0 0 0-3.097-.731c-1.143 0-2.176.244-3.096.731-.921.488-1.674 1.138-2.232 1.977-.53.84-.809 1.841-.809 2.979v12.754c0 .785-.669 1.408-1.45 1.408-.307 0-.586-.108-.809-.271a1.375 1.375 0 0 1-.67-1.191v-11.671c0-2.058-1.255-3.548-1.311-3.602a6.105 6.105 0 0 0-2.371-1.949c-1.172-.569-2.566-.867-4.184-.867h-6.612v3.845h6.556c1.227 0 2.148.298 2.789.894.447.433.754.948.865 1.625l-5.635.893c-1.394.217-2.594.596-3.514 1.138-.949.541-1.674 1.245-2.121 2.058a5.526 5.526 0 0 0-.697 2.708c0 1.056.279 2.003.865 2.816.558.812 1.339 1.435 2.343 1.895.976.434 2.092.677 3.347.677h5.58c.334 2.871 2.817 5.091 5.858 5.091 3.04 0 5.774-2.437 5.913-5.497h.028v-12.89c0-.27.056-.514.196-.731.111-.216.279-.352.502-.487a1.47 1.47 0 0 1 .697-.163c.251 0 .502.055.698.163.195.108.362.271.502.487.139.217.195.461.195.731v7.555c0 1.165.279 2.167.837 3.006a5.475 5.475 0 0 0 2.231 1.95c.921.46 1.953.677 3.041.677 1.088 0 2.12-.217 3.041-.677a5.68 5.68 0 0 0 2.231-1.95c.586-.839.865-1.841.865-3.006v-7.609c0-.271.056-.487.167-.677.112-.189.279-.352.503-.46.223-.108.446-.163.669-.163.251 0 .474.055.697.163.224.108.391.271.502.46.112.19.196.434.196.677V259.443h.028c.223 3.06 2.817 5.497 6.025 5.497s5.83-2.437 6.025-5.497h.056v-4.982h3.208c1.283 0 2.455-.271 3.515-.84 1.06-.542 1.897-1.327 2.539-2.302.613-.975.92-2.139.92-3.412 0-1.272-.307-2.437-.948-3.412a6.552 6.552 0 0 0-2.539-2.274v-.054Zm-48.482 13.999h-5.607c-.642-.054-1.088-.189-1.423-.46-.474-.379-.697-.812-.697-1.354 0-.596.195-1.11.641-1.516.447-.433 1.2-.731 2.232-.894l4.854-.758v5.01-.028Zm46.697-6.851a2.528 2.528 0 0 1-.949.921c-.39.217-.836.298-1.311.298h-2.65v-5.307h2.678c.474 0 .893.108 1.283.324.391.217.698.515.949.894s.363.867.363 1.435c0 .569-.112 1.029-.363 1.435ZM213.209 252.095c0 .622-.135 1.191-.379 1.705-.243.514-.595.92-1.082 1.19a3.283 3.283 0 0 1-1.678.433c-.622 0-1.164-.135-1.651-.433a2.716 2.716 0 0 1-1.082-1.19c-.271-.514-.379-1.083-.379-1.705v-11.093h-4.682v10.85c0 1.542.325 2.868 1.002 4.004a7.076 7.076 0 0 0 2.76 2.597c1.191.623 2.517.92 4.032.92 1.515 0 2.869-.297 4.032-.92 1.191-.622 2.111-1.461 2.76-2.597.65-1.136 1.002-2.462 1.002-4.004v-10.85h-4.682v11.093h.027ZM234.375 250.6c-.497-.797-1.188-1.43-2.072-1.897-.884-.468-1.934-.688-3.122-.688h-2.846c-.276 0-.525-.082-.774-.22a1.746 1.746 0 0 1-.552-.55c-.139-.22-.194-.467-.194-.77s.055-.523.194-.77c.11-.22.304-.413.552-.55.249-.138.498-.193.801-.193h7.599v-3.96h-8.179c-1.05 0-2.017.248-2.873.715a5.354 5.354 0 0 0-2.045 1.953c-.497.825-.774 1.787-.774 2.942 0 1.156.277 2.146.802 2.943.525.825 1.243 1.43 2.155 1.87.884.44 1.906.633 3.012.633h2.652c.359 0 .636.082.884.247.249.165.442.358.58.605.139.248.221.55.221.853 0 .302-.082.577-.221.825a1.61 1.61 0 0 1-.607.605c-.249.137-.553.22-.885.22h-7.847v3.96h8.593c1.023 0 1.99-.22 2.846-.687a5.254 5.254 0 0 0 2.073-2.035c.525-.908.773-1.981.773-3.246 0-1.072-.248-2.035-.746-2.832v.027ZM141.274 230.626c.476-.797.7-1.731.7-2.774v-8.599c0-.357.084-.659.279-.961.168-.303.42-.522.728-.687a2.072 2.072 0 0 1 1.959 0c.308.165.532.384.7.687.168.302.252.631.252.961v13.681h3.498v-13.269c0-.989-.224-1.895-.672-2.72-.447-.824-1.091-1.456-1.903-1.95-.811-.494-1.763-.714-2.826-.714-1.064 0-2.043.247-2.855.714a5.216 5.216 0 0 0-1.931 1.95c-.448.797-.672 1.704-.672 2.72v8.599c0 .357-.084.659-.252.961a1.913 1.913 0 0 1-.699.714 1.756 1.756 0 0 1-.98.275c-.364 0-.672-.082-.951-.275-.28-.164-.504-.412-.7-.714-.168-.302-.28-.632-.28-.961v-8.599c0-.989-.224-1.895-.7-2.72a5.2 5.2 0 0 0-1.931-1.95c-.811-.467-1.763-.714-2.854-.714-1.092 0-2.043.247-2.827.714a5.355 5.355 0 0 0-1.903 1.95c-.448.797-.672 1.704-.672 2.72v13.269h3.498v-13.681c0-.357.084-.659.28-.961.196-.303.42-.522.7-.687.28-.165.616-.247.952-.247.335 0 .671.082.979.247.28.165.532.384.7.687.168.302.28.631.28.961v8.599c0 1.043.224 1.977.699 2.774a5.152 5.152 0 0 0 1.959 1.896c.84.467 1.764.686 2.799.686 1.036 0 1.959-.219 2.771-.686a5.28 5.28 0 0 0 1.931-1.896h-.056ZM174.999 224.306c.843.413 1.771.634 2.84.634h3.234c.45 0 .844.11 1.209.33.366.221.647.496.844.854a2.4 2.4 0 0 1 .309 1.184c0 .441-.112.799-.309 1.157a2.253 2.253 0 0 1-.844.854c-.365.22-.759.303-1.209.303h-8.071v3.03h8.493c1.012 0 1.94-.221 2.756-.689a4.941 4.941 0 0 0 1.94-1.983c.478-.881.703-1.9.703-3.112 0-1.019-.225-1.901-.675-2.699-.45-.772-1.097-1.378-1.968-1.818-.844-.441-1.856-.661-2.981-.661h-3.347c-.422 0-.787-.11-1.125-.303a2.17 2.17 0 0 1-.787-.799c-.197-.33-.253-.689-.253-1.074 0-.386.084-.771.281-1.102.197-.33.45-.606.788-.799a2.218 2.218 0 0 1 1.124-.303h12.711v9.998c0 .992.225 1.873.675 2.672.45.799 1.069 1.46 1.885 1.928.815.468 1.771.716 2.84.716h1.322v-3.029h-1.322a1.884 1.884 0 0 1-1.378-.551c-.366-.358-.534-.827-.534-1.35V217.31h5.343v-3.029h-21.907c-1.013 0-1.941.22-2.756.688-.816.469-1.462 1.074-1.912 1.901-.478.799-.703 1.735-.703 2.809s.253 2.011.731 2.809c.478.799 1.153 1.378 1.996 1.818h.057ZM205.14 226.739h4.525l2.097 3.933a4.286 4.286 0 0 0 1.379 1.43c.579.357 1.214.55 1.959.55h2.207v-3.025h-1.683c-.165 0-.331-.028-.441-.11a1.183 1.183 0 0 1-.304-.33l-1.738-3.191a6.128 6.128 0 0 0 2.318-2.2c.579-.935.882-2.007.882-3.245 0-1.237-.303-2.338-.855-3.273-.579-.935-1.352-1.65-2.345-2.2a6.873 6.873 0 0 0-3.255-.797h-8.167v18.343h3.449v-5.858l-.028-.027Zm0-9.433h4.304c.635 0 1.214.11 1.711.357.496.248.938.605 1.241 1.1.304.496.469 1.073.469 1.733 0 .66-.165 1.238-.469 1.705a2.997 2.997 0 0 1-1.241 1.1 4.02 4.02 0 0 1-1.738.385h-4.304v-6.38h.027ZM159.731 236.122c.585.569 1.53.569 2.142 0l5.814-5.658c3.81-3.709 3.81-9.719 0-13.401-3.811-3.71-9.986-3.71-13.769 0-3.81 3.709-3.81 9.719 0 13.401l5.813 5.658Zm.724-18.978c3.894-.19 7.12 2.924 6.898 6.714-.167 3.249-2.893 5.902-6.231 6.064-3.894.19-7.12-2.924-6.926-6.741.167-3.249 2.893-5.902 6.231-6.064l.028.027ZM221.961 232.538c.92.447 2.007.67 3.206.67h8.477a.929.929 0 0 0 .921-.921V220.674c0-2.066-1.227-3.602-1.227-3.602-.558-.809-1.311-1.451-2.231-1.926-1.116-.586-2.482-.865-4.071-.865h-6.246v3.071h6.19c1.394 0 2.482.39 3.262 1.144.586.586.949 1.312 1.088 2.234v.39l-6.274 1.033c-1.366.224-2.51.615-3.43 1.173-.892.558-1.561 1.228-2.008 2.01-.418.782-.641 1.675-.641 2.68 0 1.005.251 1.954.781 2.736a5.489 5.489 0 0 0 2.175 1.87l.028-.084Zm1.199-6.728c.53-.558 1.394-.921 2.593-1.144l5.605-.949v6.616h-6.33c-.697-.056-1.283-.223-1.785-.614-.613-.503-.92-1.145-.92-1.899 0-.809.279-1.479.809-2.037l.028.027ZM153.013 287.208c-.857.801-1.908 1.188-3.18 1.188-1.272 0-2.296-.387-3.181-1.188-.857-.774-1.299-1.797-1.299-3.069v-6.302h2.212v6.192c0 .663.221 1.216.636 1.658.415.443.968.636 1.604.636.636 0 1.161-.221 1.576-.636.415-.442.636-.995.636-1.658v-6.192h2.24v6.302c0 1.244-.442 2.267-1.299 3.069h.055ZM156.387 288.23v-10.393h2.461l2.71 4.091c.221.332.47.719.774 1.161l.719 1.078.305.442v-6.772h2.24v10.393h-2.379l-2.599-3.897c-.277-.415-.581-.885-.913-1.382l-.802-1.189-.249-.442v6.883h-2.24l-.027.027ZM167.808 288.23v-10.393h2.24v10.393h-2.24ZM172.316 288.23v-10.393h2.461l2.71 4.091c.221.332.47.719.774 1.161l.719 1.078.305.442v-6.772h2.24v10.393h-2.379l-2.599-3.897c-.277-.415-.581-.885-.913-1.382l-.802-1.189-.249-.442v6.883h-2.24l-.027.027ZM182.686 288.23l4.508-10.393h2.24l4.369 10.393h-2.157l-.691-1.658h-5.282l-.719 1.658h-2.296.028Zm3.789-3.427h3.761l-.802-1.935-1.107-2.654a35.373 35.373 0 0 1-1.023 2.681l-.829 1.908ZM194.688 286.959l.802-1.742c1.079.774 2.212 1.161 3.429 1.161.553 0 1.023-.11 1.411-.359.387-.249.58-.525.58-.885 0-.359-.166-.608-.497-.774-.332-.193-.802-.331-1.411-.469-.442-.111-.829-.194-1.161-.305-.332-.082-.664-.221-1.051-.387-.387-.165-.692-.359-.913-.58a2.244 2.244 0 0 1-.58-.829 2.529 2.529 0 0 1-.249-1.134c0-.94.387-1.686 1.133-2.211.747-.525 1.66-.774 2.738-.774 1.411 0 2.683.359 3.789 1.106l-.83 1.741c-.912-.553-1.908-.857-2.986-.857-.388 0-.747.083-1.107.221-.359.138-.525.415-.525.774 0 .304.166.553.47.719.304.166.802.332 1.466.47 2.627.58 3.954 1.686 3.954 3.317 0 1.051-.414 1.852-1.272 2.405-.857.553-1.853.829-3.014.829-1.687 0-3.097-.47-4.231-1.409l.055-.028ZM204.478 286.959l.802-1.742c1.078.774 2.212 1.161 3.429 1.161.553 0 1.023-.11 1.41-.359s.581-.525.581-.885c0-.359-.166-.608-.498-.774-.332-.193-.802-.331-1.41-.469-.443-.111-.83-.194-1.162-.305-.332-.082-.663-.221-1.051-.387-.387-.165-.691-.359-.912-.58a2.246 2.246 0 0 1-.581-.829 2.529 2.529 0 0 1-.249-1.134c0-.94.387-1.686 1.134-2.211.747-.525 1.659-.774 2.738-.774 1.41 0 2.682.359 3.788 1.106l-.829 1.741c-.913-.553-1.908-.857-2.987-.857-.387 0-.747.083-1.106.221-.36.138-.525.415-.525.774 0 .304.165.553.47.719.304.166.802.332 1.465.47 2.628.58 3.955 1.686 3.955 3.317 0 1.051-.415 1.852-1.272 2.405-.857.553-1.853.829-3.015.829-1.686 0-3.097-.47-4.231-1.409l.056-.028ZM213.687 288.23l4.507-10.393h2.24l4.37 10.393h-2.157l-.692-1.658h-5.282l-.719 1.658h-2.295.028Zm3.788-3.427h3.761l-.802-1.935-1.106-2.654a35.373 35.373 0 0 1-1.023 2.681l-.83 1.908ZM233.321 287.208c-.857.801-1.908 1.188-3.18 1.188-1.272 0-2.295-.387-3.18-1.188-.857-.774-1.3-1.797-1.3-3.069v-6.302h2.212v6.192c0 .663.222 1.216.637 1.658.414.443.967.636 1.603.636.637 0 1.162-.221 1.577-.636.415-.442.636-.995.636-1.658v-6.192h2.24v6.302c0 1.244-.443 2.267-1.3 3.069h.055ZM140.071 272.198v16.641c0 .497-.111.995-.305 1.437-.248.581-.801 1.133-1.548 1.576a6.86 6.86 0 0 1-2.102.774c-2.627.497-3.65.884-4.065 1.492l-.194.305-.193-.305c-.415-.608-1.438-.967-4.065-1.492a7.13 7.13 0 0 1-2.102-.774c-.747-.443-1.3-.995-1.549-1.576a3.735 3.735 0 0 1-.304-1.437v-16.641h4.452v.774h1.577v-.774h4.452v.774h1.576v-.774h4.453m.497-.498h-5.447v.774h-.581v-.774h-5.448v.774h-.581v-.774h-5.448v17.139c0 .58.111 1.133.36 1.658.304.691.912 1.299 1.77 1.797a7.289 7.289 0 0 0 2.24.829c2.433.47 3.429.802 3.761 1.272l.193.304.415.58.415-.58.193-.304c.332-.47 1.355-.802 3.761-1.272a7.032 7.032 0 0 0 2.24-.829c.858-.498 1.466-1.106 1.77-1.797a4.24 4.24 0 0 0 .36-1.658V271.7h.027Z" fill="#fff"/><path d="M130.309 274.298s-.139-.082-.249-.082h-.36v.663h.36s.193-.028.249-.083a.314.314 0 0 0 .083-.221.314.314 0 0 0-.083-.221v-.056Z" fill="#fff"/><path d="M135.867 272.446v.774h-2.074v-.774h-3.954v.774h-2.075v-.774h-3.954v3.677h15.984v-3.677h-3.954.027Zm-10.453 2.986h-.249l-.608-1.438h.248l.332.83.111.331c.055-.138.083-.248.111-.331l.331-.83h.277l-.608 1.438h.055Zm2.848 0h-1.161v-1.438h1.106v.222h-.857v.359h.802v.221h-.802v.415h.885v.221h.027Zm2.102 0-.249-.36h-.442v.332h-.249v-1.437h.608c.194 0 .36.055.47.166a.5.5 0 0 1 .166.387c0 .11 0 .193-.083.276a.513.513 0 0 1-.221.194l.304.414h-.304v.028Zm1.742 0h-.249v-1.438h.249v1.438Zm2.406-1.216h-.498v1.216h-.249v-1.216h-.497v-.222h1.272v.222h-.028Zm2.102 1.216-.111-.249h-.802l-.11.249h-.249l.636-1.438h.249l.636 1.438h-.249Zm2.295-.083s-.249.11-.415.11c-.249 0-.414-.055-.58-.193l.11-.194a.75.75 0 0 0 .47.166c.083 0 .166 0 .222-.055a.153.153 0 0 0 .083-.138c0-.028 0-.083-.056-.111-.027-.027-.055-.055-.11-.055h-.139l-.166-.083s-.083-.028-.138-.055c-.055 0-.083-.056-.11-.083-.028-.028-.056-.055-.083-.111 0-.055-.028-.083-.028-.138 0-.138.055-.221.166-.304a.554.554 0 0 1 .359-.111c.194 0 .36.056.498.166l-.11.194s-.249-.111-.415-.111h-.111a.215.215 0 0 0-.111.055c-.027 0-.055.056-.055.111s0 .083.083.111c.055 0 .138.055.221.083l.194.055.166.083c.055.027.083.083.138.138a.388.388 0 0 1 .055.166.396.396 0 0 1-.165.332l.027-.028Z" fill="#fff"/><path d="M136.144 274.326v-.055s-.111.249-.166.331l-.166.36h.608l-.166-.36-.055-.138s-.055-.11-.055-.138ZM130.143 283.504c.083-.277.249-.305.498-.305-.166.111-.332.194-.498.305Z" fill="#fff"/><path d="M131.83 276.316h-7.993v12.55c0 .47.111.912.277 1.355.525 1.188 2.185 1.962 3.457 2.211 2.572.498 3.733.885 4.231 1.576.498-.719 1.687-1.106 4.231-1.576 1.272-.249 2.931-1.023 3.457-2.211.193-.415.276-.885.276-1.355v-12.55h-7.992.056Zm-4.397 6.745.055-.967-.747.608.36-.885-.913.36.608-.747-.967.056.802-.526-1.992-.248 1.992-.249-.802-.525.967.055-.608-.746.885.359-.359-.885.746.608-.055-.967.525.802.249-1.521.249 1.521.526-.802-.056.967.747-.608-.36.885.885-.359-.608.746.968-.055-.802.525 1.991.249-1.991.248.802.526-.968-.056.608.747-.912-.36.359.885-.746-.608.055.967-.526-.801-.248 1.52-.249-1.52-.526.801h.056Zm8.102.138s1.604-.442 3.181-1.824c-.332 1.852-3.513 2.571-3.513 2.571 1.494-.083 2.572-.691 3.153-1.216-.581 1.465-2.461 2.017-3.706 2.183 1.107.166 2.24-.331 3.236-.746-.443 1.05-2.24 1.631-3.65 1.493.442.138.884.193 1.355.166-.388.718-1.024.912-1.77.939.359.056.719.056 1.078.028a2.225 2.225 0 0 1-1.161.774c.885.415 1.3 1.189 1.465 2.156 0 .111-.027.277.056.36.138 0 .249 0 .332-.111.442-1.382-1.466-1.686-.553-2.571.801 0 .248-.332.248-.774 0-.414.277-.47.553-.608-.055.083-.082.166-.11.249.138-.083.304-.608.359-.498.47.747.083.553-.138 1.106 0 .166.083.304.111.442.083.332-.166.525-.47.525 0-.055.055-.082.083-.138-1.273.277.719.94.276 2.488-.193.387-.498.47-.885.608 0 0-.166.139-.193.249 0 .083-.111.055-.166.055-1.162 0-2.296 0-3.457.028h-.111c-.166-.111-.138-.332-.055-.498.028-.083.083-.11.138-.138 0 0-.138 0-.221.056-.166.138-.194.331-.166.552-.055 0-.138.056-.194 0-.193-.276-.11-.691.222-.884.193-.111.636-.056.857.083-.111.166-.166.304-.111.525.194-.525.692-.415 1.134-.415-.221-.138-.498-.193-.829-.166-.498-.331-.885-.718-1.328-1.133-.166.221-.332.387-.581.47.083-.166.166-.276.166-.47-.193.249-.746.94-.47 1.244.277.083.415.359.221.581 0-.056-.055-.139-.083-.166a.483.483 0 0 0-.47-.056c0 .083-.083.139-.138.166h-.111l-.221.194s-.083-.249-.055-.415c-.083.083-.111.249-.277.249l-.166.166s-.055-.249-.027-.36c0 0-.056.056-.138.083h-.166l-.111.111c-.028-.387 1.3-1.023 1.715-2.156a.744.744 0 0 1-.415.276c.166-.415.221-.857.304-1.299-.111.221-.221.442-.36.636-.138-1.244.443-2.737 1.245-3.677 0 0 .083-.138.055-.193 0-.056-.083-.139-.083-.166-.027-.028.056-.111.056-.138-.305 0-.802-.056-.996.221v.055c-.443-.498-.111-.912.415-1.078-.166-1.189 1.161-1.106 1.963-1.05l-.387.248c.553.056 1.051.166 1.383.691-.166-.027-.304-.083-.47-.11.359.304.608.608.691 1.106a2.275 2.275 0 0 0-.277-.166c.194.359.277.691.194 1.105-.055-.027-.083-.083-.138-.11l.083.166.083.166a2.98 2.98 0 0 0 .608-.857c.747-1.548.083-3.373-.719-4.479-.276-.387-.857-1.078-1.936-1.603.277 0 .968-.027 1.715.387.581.332.885.802 1.023 1.051a4.751 4.751 0 0 0-.221-.774 7.683 7.683 0 0 0-.692-1.576c.249.111 1.217.553 1.632 1.603.166.415.221.802.221 1.078.083-.276.139-.553.194-.884.111-.83.028-1.548-.055-2.073.193.221.774.995.746 2.073 0 .525-.138.912-.276 1.188.221-.248.498-.58.719-1.05.387-.802.415-1.548.415-1.963.11.221.553 1.217.165 2.378a3.09 3.09 0 0 1-1.023 1.409c.139-.083.249-.165.387-.276 1.079-.802 1.715-1.852 2.075-2.681 0 .387-.028 1.52-.83 2.57a4.3 4.3 0 0 1-1.549 1.272c.443-.194.968-.47 1.521-.857a9.842 9.842 0 0 0 1.798-1.714c0 1.852-3.485 3.511-3.485 3.511l.083.027Z" fill="#fff"/><path d="m130.115 283.504.498-.305c-.249 0-.415 0-.498.305ZM128.179 281.458a.775.775 0 1 0 0-1.55.775.775 0 0 0 0 1.55Z" fill="#fff"/></g><defs><clipPath id="clip0_112_4"><path fill="#fff" d="M0 0h357v651H0z"/></clipPath><clipPath id="clip1_112_4"><path fill="#fff" transform="matrix(-1 0 0 1 117 372)" d="M0 0h116v31H0z"/></clipPath><clipPath id="clip2_112_4"><path fill="#fff" transform="translate(213 129)" d="M0 0h142v37H0z"/></clipPath><radialGradient id="paint0_radial_112_4" cx="0" cy="0" r="1" gradientUnits="userSpaceOnUse" gradientTransform="matrix(0 386 -682 0 181 246)"><stop stop-color="#2E60CE"/><stop offset="1" stop-color="#2E60CE"/></radialGradient></defs></svg>