<svg width="30" height="27" fill="none" xmlns="http://www.w3.org/2000/svg"><g filter="url('#filter0_d_75_524')"><path d="m25.173 4.834 1.885 6.517c.758 2.673-3.055 6.083-8.516 7.615-5.46 1.533-10.503.608-11.26-2.065l-1.886-6.517 19.777-5.55Z" fill="#5479F7"/><path d="M13.454 19.94c1.617 0 3.381-.253 5.15-.75 3.868-1.085 7.033-3.125 8.26-5.324.505-.905.645-1.773.417-2.579L25.395 4.77a.231.231 0 0 0-.285-.159L5.333 10.16a.234.234 0 0 0-.16.29l1.884 6.517c.392 1.38 1.83 2.367 4.048 2.773.732.135 1.52.2 2.349.2Zm11.56-14.82 1.821 6.295c.193.682.067 1.43-.376 2.223-1.15 2.063-4.283 4.067-7.98 5.104-5.329 1.496-10.253.64-10.974-1.905l-1.82-6.292 19.329-5.424Z" fill="#000"/><path d="m4.283 8.557 8.918-7.17a.908.908 0 0 1 .591-.165l11.37 1.476L29.2 1.564l.555 1.958a.318.318 0 0 1-.123.352l-12.554 8.937a.909.909 0 0 1-.591.166L1.09 11.885a.32.32 0 0 1-.29-.236L.245 9.691l4.038-1.133Z" fill="#99B9FF"/><path d="M16.552 13.213c.236 0 .467-.074.66-.212l12.555-8.937a.55.55 0 0 0 .211-.606l-.555-1.957a.232.232 0 0 0-.285-.16l-3.993 1.12L13.823.99a1.14 1.14 0 0 0-.756.207L4.175 8.346.182 9.466a.232.232 0 0 0-.16.288l.554 1.958c.065.229.26.388.496.405l15.397 1.092.081.003h.002ZM29.04 1.85l.492 1.735c.006.023.01.067-.034.098l-12.554 8.937a.687.687 0 0 1-.44.124L1.107 11.653a.09.09 0 0 1-.084-.068l-.49-1.732 3.813-1.07a.243.243 0 0 0 .083-.043l8.917-7.17a.68.68 0 0 1 .43-.116L25.133 2.93c.03.004.062.002.092-.007l3.815-1.07Z" fill="#000"/><path d="M.368 9.338 12.921.401a.908.908 0 0 1 .592-.166L28.91 1.328c.303.022.414.413.167.589l-12.554 8.937a.908.908 0 0 1-.591.166L.534 9.928c-.302-.022-.414-.413-.166-.59Z" fill="#5479F7"/><path d="M15.997 11.255c.236 0 .468-.074.661-.211l12.553-8.937a.553.553 0 0 0 .213-.605.552.552 0 0 0-.497-.407L13.529.003a1.135 1.135 0 0 0-.741.208L.234 9.148a.552.552 0 0 0-.212.604c.064.23.26.39.497.407l15.397 1.092c.027.003.054.003.08.003ZM13.448.465c.016 0 .032 0 .048.002L28.894 1.56a.09.09 0 0 1 .083.069.086.086 0 0 1-.034.099L16.39 10.665a.686.686 0 0 1-.44.123L.551 9.696a.09.09 0 0 1-.083-.069.087.087 0 0 1 .033-.098L13.056.59a.675.675 0 0 1 .392-.125Z" fill="#000"/><path d="M7.003 16.061a.55.55 0 0 1 .512.548l.032 8.157-2.203-.144 1.08-8.085a.549.549 0 0 1 .579-.476Z" fill="#99B9FF"/><path d="M7.547 25a.232.232 0 0 0 .232-.234l-.032-8.157a.784.784 0 0 0-.729-.779.782.782 0 0 0-.822.678l-1.08 8.085a.235.235 0 0 0 .214.264L7.533 25h.015L7.547 25Zm-.58-8.706h.021c.165.011.294.15.294.316l.032 7.909-1.707-.112 1.048-7.838a.317.317 0 0 1 .312-.275Z" fill="#000"/><path d="M7.109 16.233c.12 0 .221-.093.231-.215l.412-5.433 7.005-5.132a.233.233 0 0 0 .05-.326.23.23 0 0 0-.323-.05l-7.091 5.195a.233.233 0 0 0-.095.17l-.42 5.54c-.01.128.086.24.214.25h.017v.001Z" fill="#000"/></g><defs><filter id="filter0_d_75_524" x=".001" y="0" width="30" height="27.001" filterUnits="userSpaceOnUse" color-interpolation-filters="sRGB"><feFlood flood-opacity="0" result="BackgroundImageFix"/><feColorMatrix in="SourceAlpha" values="0 0 0 0 0 0 0 0 0 0 0 0 0 0 0 0 0 0 127 0" result="hardAlpha"/><feOffset dy="2"/><feComposite in2="hardAlpha" operator="out"/><feColorMatrix values="0 0 0 0 0 0 0 0 0 0 0 0 0 0 0 0 0 0 0.25 0"/><feBlend in2="BackgroundImageFix" result="effect1_dropShadow_75_524"/><feBlend in="SourceGraphic" in2="effect1_dropShadow_75_524" result="shape"/></filter></defs></svg>