<svg width="161" height="156" fill="none" xmlns="http://www.w3.org/2000/svg"><circle cx="115" cy="22" r="4" fill="#E83770" fill-opacity=".7"/><circle cx="2" cy="2" r="2" transform="matrix(-1 0 0 1 105 14)" fill="#E83770" fill-opacity=".7"/><circle cx="112" cy="11" r="1" transform="rotate(180 112 11)" fill="#E83770" fill-opacity=".7"/><circle cx="3" cy="3" r="3" transform="matrix(-1 0 0 1 102 22)" fill="#E83770" fill-opacity=".7"/><path d="m95.873 51.895-44.71 2.708 1.543 100.914h42.143l1.024-103.622Z" fill="#2D519E"/><path d="M62.764 24.153s-3.795-7.727-5.132-9.087c-1.339-1.36-2.372-2.796 1.565-5.434C63.132 6.997 73.417-.045 79.717 0c6.302.045 10.718 4.03 8.778 6.904-1.94 2.875-2.828 4.085-1.335 4.271 1.496.186 2.32 1.856-1.915 4.314-4.236 2.458-19.002 13.122-22.48 8.664Z" fill="#000"/><path d="m84.198 46.452-2.267-8.108c4.905-1.087 6.375-7.762 5.211-12.968-.845-3.778-3.069-12.382-3.069-12.382-5.12 3.013-18.973 3.33-18.973 3.33s1.439 2.297.612 3.43c-.826 1.134-.312 5.48-.312 5.48s-1.792-1.688-3.71-.397c-1.079.727.154 3.828 1.038 5.567.885 1.74 2.785 2.082 2.785 2.082s.313-.187.955 1.346l-2.056 10.85a13.434 13.434 0 0 1-8.038 9.904l11.56 3.695c6.6 1.745 15.185.509 21.028-3.026l3.08-1.864a9.638 9.638 0 0 1-7.841-6.938l-.003-.001Z" fill="#A86A3B"/><path d="M74.313 59.516c5.239 0 10.762-1.37 14.885-3.866l3.08-1.864a.462.462 0 0 0-.17-.854 9.192 9.192 0 0 1-7.466-6.605l-2.14-7.654c1.507-.46 2.786-1.467 3.722-2.942 1.666-2.623 2.204-6.728 1.37-10.456-.837-3.742-3.051-12.31-3.073-12.395a.466.466 0 0 0-.272-.312.467.467 0 0 0-.41.028c-4.958 2.917-18.614 3.263-18.75 3.266a.464.464 0 0 0-.382.708c.33.527 1.153 2.195.632 2.91-.677.928-.606 3.372-.494 4.819-.89-.45-2.166-.686-3.414.153-1.512 1.02.115 4.648.884 6.16.976 1.923 3.028 2.312 3.114 2.328l.028.004c.074.077.255.306.529.937l-2.031 10.712a12.928 12.928 0 0 1-7.761 9.562.464.464 0 0 0 .036.87l11.56 3.694c2.028.537 4.248.794 6.523.794v.003ZM90.798 53.6l-2.08 1.258c-5.714 3.459-14.214 4.682-20.67 2.975l-10.41-3.328a13.853 13.853 0 0 0 7.225-9.737L66.92 33.92a.462.462 0 0 0-.028-.264c-.527-1.261-.89-1.52-1.149-1.605a.714.714 0 0 0-.214-.033c-.313-.077-1.711-.484-2.39-1.822-1.227-2.412-1.75-4.595-1.192-4.971 1.593-1.074 3.073.292 3.135.35.141.134.351.164.526.078a.466.466 0 0 0 .251-.47c-.19-1.61-.297-4.434.225-5.152.696-.953.192-2.404-.22-3.263 2.885-.109 13.107-.66 17.909-3.08.511 1.989 2.209 8.629 2.917 11.793.783 3.5.294 7.328-1.247 9.756-.91 1.434-2.126 2.329-3.613 2.657a.464.464 0 0 0-.345.577l2.267 8.108a10.12 10.12 0 0 0 7.045 7.022h.002ZM65.746 32.885c-.01.007-.02.011-.03.017l.03-.017Z" fill="#000"/><path d="M77.007 39.733c1.544 0 3.35-.306 5.452-1.076a.462.462 0 0 0-.317-.869c-9.54 3.492-12.279-2.931-12.39-3.207a.462.462 0 1 0-.857.348c.024.06 2.043 4.804 8.11 4.804h.002Z" fill="#000"/><path d="M86.707 17.733s.678 2.192-.498 2.388c-4.35.724-11.936 1.79-20.435 2.038v2.306l3.156-.057.492 2.222a2.935 2.935 0 0 0 2.864 2.302h5.063c1.5 0 2.757-1.132 2.918-2.625l.063-.584c.09-.841.74-1.513 1.576-1.629a1.841 1.841 0 0 1 2.007 1.267 2.45 2.45 0 0 0 3.141 1.574l.468-.164a2.938 2.938 0 0 0 1.934-3.231l-.556-3.542s-.302-2.331-2.194-2.264l.001-.001Z" fill="#E2EAFF"/><path d="M66.552 22.726h.013c8.29-.242 14.943-1.35 19.345-2.085l.374-.063a1.757 1.757 0 0 0 1.44-1.384c.152-.721-.149-1.447-.765-1.85a.462.462 0 1 0-.506.775c.358.234.424.61.366.884a.83.83 0 0 1-.687.66l-.375.062c-4.378.73-10.993 1.832-19.22 2.073a.462.462 0 0 0 .014.925v.003Z" fill="#000"/><path d="M72.286 29.395h5.063a3.393 3.393 0 0 0 3.378-3.038l.063-.585a1.375 1.375 0 0 1 1.18-1.219 1.374 1.374 0 0 1 1.503.949c.24.757.764 1.369 1.472 1.724.71.355 1.512.407 2.263.147l.468-.164a3.4 3.4 0 0 0 2.239-3.74l-.557-3.542a.461.461 0 1 0-.913.144l.557 3.542a2.474 2.474 0 0 1-1.63 2.722l-.467.163a1.97 1.97 0 0 1-1.544-.099 1.973 1.973 0 0 1-1.005-1.177 2.297 2.297 0 0 0-2.511-1.584 2.3 2.3 0 0 0-1.974 2.037l-.062.585a2.47 2.47 0 0 1-2.459 2.211h-5.062a2.455 2.455 0 0 1-2.412-1.94l-.492-2.221a.454.454 0 0 0-.46-.363l-3.157.058a.463.463 0 0 0-.454.471.459.459 0 0 0 .471.455l2.778-.05.41 1.852a3.377 3.377 0 0 0 3.316 2.665l-.002-.003Z" fill="#000"/><path d="M87.14 25.466a.463.463 0 0 0 .453-.558l-.66-3.162a.462.462 0 1 0-.905.19l.66 3.162a.463.463 0 0 0 .453.368Z" fill="#000"/><path d="M29.035 66.305C39.29 55.362 60.312 52.063 60.312 52.063l16.932 45.744 11.71-46.464c11.482.163 26.695 7.72 26.695 7.72s47.81 23.373 43.63 45.881c-3.079 16.579-29.365 7.31-43 1.277l-.63 49.294H20.743l3.37-33.037a57.49 57.49 0 0 1-4.886 1.554c-25.464 6.892-27.621-25.255 9.808-57.73v.003Z" fill="#fff"/><path d="M20.743 155.98h94.908a.463.463 0 0 0 .462-.458l.622-48.595c10.31 4.503 28.242 10.951 37.415 6.105 3.017-1.594 4.896-4.286 5.586-8.004.978-5.265-.75-10.99-5.134-17.022-3.473-4.776-8.617-9.76-15.289-14.814-11.334-8.585-23.338-14.489-23.458-14.546-.151-.074-15.438-7.604-26.89-7.768h-.008a.463.463 0 0 0-.448.35L77.163 96.245 60.748 51.9a.464.464 0 0 0-.506-.296c-.21.033-21.275 3.447-31.525 14.364C3.795 87.596-3.76 109.237 1.662 119.438c2.9 5.461 9.347 7.299 17.687 5.041 1.429-.388 2.849-.829 4.23-1.318l-3.294 32.305a.464.464 0 0 0 .46.51l-.002.004Zm94.451-.926H21.256l3.317-32.527a.462.462 0 0 0-.619-.482 57.604 57.604 0 0 1-4.847 1.544c-8.003 2.166-13.909.539-16.63-4.582-2.661-5.009-1.86-12.916 2.196-21.691C9.35 87.2 17.88 76.598 29.34 66.656c.012-.011.024-.021.035-.034 9.283-9.907 27.784-13.529 30.64-14.037L76.813 97.97a.462.462 0 0 0 .882-.047l11.62-46.106c11.205.312 25.981 7.59 26.131 7.664.121.06 12.055 5.929 23.319 14.462 10.318 7.817 22.174 19.527 20.06 30.918-.636 3.425-2.354 5.9-5.109 7.353-9.021 4.767-27.211-1.973-37.25-6.414a.462.462 0 0 0-.65.417l-.625 48.838h.002Z" fill="#000"/><path d="M76.965 144.435v-39.49l-19.23-23.319 3.246-5.879-7.004-15.398 22.988 84.086Z" fill="#fff"/><path d="M76.965 144.898a.462.462 0 0 0 .462-.463v-39.49a.466.466 0 0 0-.106-.295l-19.03-23.076 3.094-5.603a.464.464 0 0 0 .017-.415l-7.004-15.399a.463.463 0 0 0-.841.384l6.907 15.187-3.133 5.674a.465.465 0 0 0 .048.52l19.125 23.19v39.323c0 .256.206.463.462.463h-.001Z" fill="#000"/><path d="M97.043 58.076 92.7 75.398l3.509 7.395-13.144 19.528 13.977-44.245Z" fill="#fff"/><path d="M83.066 102.785a.463.463 0 0 0 .384-.205l13.143-19.53a.462.462 0 0 0 .033-.457l-3.436-7.246 4.301-17.159a.463.463 0 0 0-.897-.227l-4.342 17.32a.462.462 0 0 0 .031.313l3.394 7.157-12.995 19.31a.462.462 0 0 0 .384.721v.003ZM39.06 139.931a.466.466 0 0 0 .224-.058l20.194-11.204a.464.464 0 0 0-.449-.811l-20.194 11.205a.464.464 0 0 0 .225.869v-.001ZM114.234 93.834a.463.463 0 0 0 .454-.379c1.713-9.352 5.99-16.157 7.036-17.715L151.8 92.632a.463.463 0 1 0 .453-.809l-30.444-17.097a.461.461 0 0 0-.6.132c-.054.074-5.441 7.576-7.43 18.43a.463.463 0 0 0 .456.546h-.001Z" fill="#000"/><path d="M112.725 40.227h-13.12v45.907a6.566 6.566 0 0 0 6.56 6.57 6.565 6.565 0 0 0 6.561-6.57V40.227h-.001Z" fill="#fff"/><path d="M106.165 93.165c3.872 0 7.023-3.154 7.023-7.032V40.227a.462.462 0 0 0-.462-.463h-13.12a.462.462 0 0 0-.463.463v45.907c0 3.877 3.15 7.031 7.022 7.031Zm6.098-52.476v45.443c0 3.367-2.736 6.105-6.098 6.105-3.362 0-6.098-2.738-6.098-6.105V40.691h12.195l.001-.002Z" fill="#000"/><path d="M106.165 91.1a4.97 4.97 0 0 0 4.961-4.968v-30.85h-9.92v30.85a4.97 4.97 0 0 0 4.96 4.968h-.001Z" fill="#E83770"/><path d="M100.405 36.03h11.52c1.768 0 3.2 1.434 3.2 3.204a3.202 3.202 0 0 1-3.2 3.204h-11.52a3.202 3.202 0 0 1-3.2-3.204 3.202 3.202 0 0 1 3.2-3.205Z" fill="#fff"/><path d="M100.405 42.902h11.52a3.67 3.67 0 0 0 3.663-3.668 3.67 3.67 0 0 0-3.663-3.668h-11.52a3.67 3.67 0 0 0-3.663 3.668 3.67 3.67 0 0 0 3.663 3.668Zm11.52-6.41a2.743 2.743 0 0 1 2.738 2.742 2.743 2.743 0 0 1-2.738 2.741h-11.52a2.743 2.743 0 0 1-2.737-2.741 2.743 2.743 0 0 1 2.737-2.742h11.52Z" fill="#000"/><path d="M118.528 76.884c.408-.465-10.481-8.632-10.481-8.632l-10.174-4.171s-.886 4.307 2.115 5.497c0 0-2.23 2.461-.413 5.128 0 0-1.817 1.7 0 4.08 0 0-1.377 2.15.413 3.94 1.789 1.79 12.721 8.283 12.721 8.283s2.397-10.23 5.819-14.127v.002Z" fill="#A86A3B"/><path d="M112.708 91.474a.465.465 0 0 0 .451-.357c.024-.101 2.409-10.163 5.717-13.927a.513.513 0 0 0 .123-.396c-.032-.303-.071-.683-5.451-4.903a345.352 345.352 0 0 0-5.224-4.008.44.44 0 0 0-.102-.057l-10.174-4.172a.464.464 0 0 0-.629.334c-.038.181-.826 4.2 1.867 5.765-.572.874-1.505 2.822-.284 4.914-.471.629-1.31 2.187.024 4.15-.482.965-.832 2.771.634 4.238 1.81 1.81 12.363 8.087 12.812 8.353a.454.454 0 0 0 .236.064v.002Zm5.269-14.656c-2.905 3.546-5.001 11.231-5.568 13.474-2.214-1.326-10.59-6.386-12.093-7.892-1.508-1.509-.399-3.288-.351-3.364a.461.461 0 0 0-.023-.53c-1.544-2.025-.113-3.402-.051-3.461a.466.466 0 0 0 .067-.6c-1.593-2.339.353-4.534.373-4.557a.463.463 0 0 0-.172-.742c-2.007-.796-2.017-3.285-1.909-4.412l9.568 3.923c4.429 3.323 9.269 7.14 10.161 8.158l-.002.003ZM26.34 121.778a.472.472 0 0 0 .213-.052c16.528-8.616 27.757-22.18 27.867-22.315a.467.467 0 0 0 .082-.444l-8.34-24.532a.464.464 0 0 0-.67-.252c-.788.458-19.391 11.332-25.793 21.777a.463.463 0 1 0 .788.484c5.714-9.324 21.96-19.356 24.983-21.17l8.072 23.745c-1.438 1.692-12.142 13.924-27.416 21.886a.463.463 0 0 0 .214.873Z" fill="#000"/><path d="m46.406 76.344 3.695-3.502a15.108 15.108 0 0 1 7.451-3.852l16.203-3.212s-.341 3.661-2.493 4.401c-2.152.74-6.392 1.438-6.392 1.438s1.515 3.961-.947 5.461c0 0 1.657 3.988-.49 5.428 0 0 .5 4.13-3.353 6.165-3.853 2.033-2.785-1.424-2.785-1.424l-6.628 2.064-4.26-12.967Z" fill="#A86A3B"/><path d="M50.667 89.776a.458.458 0 0 0 .137-.02l5.901-1.838c-.038.517.032 1.16.502 1.55.616.511 1.625.385 3.088-.387 3.492-1.843 3.646-5.343 3.614-6.352 1.769-1.451.933-4.442.574-5.474 1.832-1.424 1.318-4.124.991-5.272 1.214-.213 4.206-.77 5.938-1.366 2.406-.827 2.787-4.634 2.801-4.795a.463.463 0 0 0-.55-.497L57.46 68.537a15.559 15.559 0 0 0-7.68 3.97l-3.695 3.5a.464.464 0 0 0-.122.482l4.261 12.968c.064.195.245.32.439.32h.004Zm22.529-23.413c-.196 1.007-.738 2.918-2.085 3.38-2.089.718-6.274 1.412-6.316 1.419a.462.462 0 0 0-.356.622c.014.037 1.345 3.62-.755 4.901a.465.465 0 0 0-.187.574c.015.036 1.485 3.655-.322 4.865a.464.464 0 0 0-.201.441c.018.156.405 3.843-3.11 5.698-1.51.798-1.963.58-2.066.494-.273-.226-.173-1.004-.062-1.37a.464.464 0 0 0-.578-.579l-6.193 1.928-4.028-12.257 3.483-3.298a14.619 14.619 0 0 1 7.223-3.733l15.554-3.083-.001-.002Z" fill="#000"/><path d="M57.296 87.712c.086 0 .17-.024.248-.071l3.286-2.091a.464.464 0 0 0-.496-.782l-3.286 2.09a.464.464 0 0 0 .248.855Z" fill="#000"/></svg>