<svg width="160" height="160" fill="none" xmlns="http://www.w3.org/2000/svg"><g clip-path="url('#clip0_25_217')"><path d="M103.378 56.867h41.366c8.253 0 14.953 6.731 14.953 15.023v65.1c0 8.291-6.7 15.023-14.953 15.023h-56.32V71.89c0-8.292 6.7-15.023 14.954-15.023Z" fill="#2D519E"/><path d="M144.744 152.317h-56.32a.303.303 0 0 1-.302-.304V71.89c0-8.452 6.843-15.327 15.256-15.327h41.366c8.413 0 15.256 6.875 15.256 15.327v65.1c0 8.452-6.845 15.327-15.256 15.327Zm-56.017-.608h56.017c8.079 0 14.651-6.603 14.651-14.719v-65.1c0-8.116-6.572-14.72-14.651-14.72h-41.366c-8.079 0-14.65 6.604-14.65 14.72v79.819Z" fill="#000"/><path d="M136.693 147.673a.302.302 0 0 1-.303-.304V77.58c0-9.028 7.311-16.372 16.298-16.372.168 0 .302.135.302.303a.302.302 0 0 1-.302.305c-8.654 0-15.692 7.072-15.692 15.764v69.789a.303.303 0 0 1-.303.304Z" fill="#000"/><path d="M82.413 159.585h71.661s-9.042-24.715-9.384-24.519c-.341.197 16.427-7.508 9.384-33.775-7.044-26.269-26.421-40.483-54.531-40.924L78.217 62.81a92.543 92.543 0 0 0-31.091 9.288L33.392 51.67S-6.415 73.4 1.44 92.137c7.854 18.738 51.457 17.11 60.412 15.094l20.562 52.354Z" fill="#E73670" stroke="#000" stroke-miterlimit="10"/><path d="M29.713 88.829a.305.305 0 0 1-.206-.525l17.41-16.43a.301.301 0 0 1 .429.014.305.305 0 0 1-.014.43L29.92 88.748a.301.301 0 0 1-.207.082v-.001ZM137.349 137.624a13.397 13.397 0 0 1-9.41-3.841l-15.641-15.4a.305.305 0 0 1-.004-.43.301.301 0 0 1 .428-.004l15.641 15.4c4.336 4.268 11.131 4.885 16.158 1.467a.3.3 0 0 1 .42.082.304.304 0 0 1-.081.421 13.337 13.337 0 0 1-7.512 2.307l.001-.002ZM141.672 108.535a.303.303 0 0 1-.21-.086l-15.025-14.602a.304.304 0 0 1-.007-.43.301.301 0 0 1 .428-.007l15.025 14.603a.303.303 0 0 1-.211.522Z" fill="#000"/><path d="M110.643 96.956s-.478-26.57 9.313-35.608l-7.062-.921a5.642 5.642 0 0 0-5.717 2.963c-2.666 5.031-6.893 15.936-7.2 34.868l10.665-1.302h.001Z" fill="#2D519E"/><path d="M99.978 98.562a.303.303 0 0 1-.303-.308c.312-19.165 4.668-30.158 7.237-35.005 1.158-2.187 3.581-3.441 6.022-3.122l7.062.922a.305.305 0 0 1 .165.525c-9.578 8.84-9.221 35.113-9.215 35.378a.303.303 0 0 1-.267.307l-10.666 1.302a.321.321 0 0 1-.035.002v-.001Zm12.198-37.878a5.378 5.378 0 0 0-4.731 2.848c-2.527 4.77-6.802 15.559-7.159 34.382l10.051-1.227c-.028-2.95.053-26.135 8.954-35.119l-6.436-.84a5.374 5.374 0 0 0-.679-.044Z" fill="#000"/><path d="M125.5 92.276s-8.273 18.914-12.99 24.072l-7.366-5.965s-12.816-4.755-6.409-9.454c0 0-4.888-3.973-.222-6.53 0 0-2.794-4.235 1.426-5.148 0 0-2.254-4.69 4.226-4.69s21.335 7.715 21.335 7.715Z" fill="#D3AB8D" stroke="#000" stroke-miterlimit="10"/><path d="M111.195 86.384a.325.325 0 0 1-.096-.015c-2.973-.998-5.307-1.503-6.936-1.503-1.421 0-2.507.23-3.234.686a.301.301 0 0 1-.416-.096.305.305 0 0 1 .096-.419c.822-.517 2.019-.78 3.554-.78 1.695 0 4.092.517 7.127 1.535a.303.303 0 0 1-.096.591l.001.001Z" fill="#000"/><path d="m81.789 50.854 4.506 12.013s-2.712 3.158 3.35 3.904c6.066.746 12.828-5.26 12.828-5.26l-6.519-18.143-14.166 7.487Z" fill="#D3AB8D"/><path d="M90.727 67.138c-.374 0-.747-.02-1.118-.067-2.317-.285-3.696-.963-4.102-2.016-.367-.955.19-1.887.444-2.24L81.504 50.96a.304.304 0 0 1 .142-.376l14.166-7.488a.304.304 0 0 1 .425.166l6.519 18.143a.303.303 0 0 1-.084.33c-.263.234-6.153 5.401-11.946 5.401l.001.001Zm-8.561-16.14 4.413 11.761a.308.308 0 0 1-.054.306c-.007.008-.777.927-.45 1.773.315.814 1.563 1.377 3.61 1.629 5.363.66 11.396-4.18 12.434-5.052L95.79 43.798l-13.622 7.2h-.002ZM68.501 12.983c2.517-6.183 9.777-9.994 16.267-8.54 6.49 1.454 11.45 8.002 11.114 14.674.952-3.656 5.56-5.819 8.962-4.205 3.402 1.614 4.669 6.563 2.462 9.625 1.501-.756 3.424-.343 4.683.773 1.258 1.115 1.901 2.817 1.995 4.502.263 4.693-3.497 8.883-7.888 10.508-4.389 1.625-9.25 1.21-13.871.477-3.71-.589-7.439-1.388-10.798-3.078-4.294-2.161-7.684-6.495-10.642-10.218-3.174-3.992-4.23-9.744-2.286-14.518h.002Z" fill="#000"/><path d="M76.578 22.789S63.091 43.422 74.72 51.502c11.629 8.08 20.263-5.006 20.263-5.006s6.38 1.857 9.803-4.177c3.955-6.969-3.924-10.976-7.518-6.058 0 0-4.324 3.691-4.406.828-.083-2.863-.733-15.842-16.284-14.301v.001Z" fill="#D3AB8D"/><path d="M82.375 54.44c-2.63 0-5.253-.9-7.827-2.688-4.875-3.387-6.102-9.517-3.547-17.727 1.909-6.138 5.291-11.35 5.326-11.403a.299.299 0 0 1 .222-.136c5.144-.51 9.19.508 12.032 3.021 2.855 2.525 4.44 6.527 4.584 11.574.01.406.116.657.313.746.667.3 2.477-.85 3.567-1.774 1.952-2.641 5.045-2.734 6.974-1.478 1.855 1.21 3.239 4.004 1.03 7.895-3.143 5.536-8.766 4.628-9.935 4.37-.736 1.05-4.644 6.25-10.514 7.386a11.68 11.68 0 0 1-2.225.216v-.002Zm-5.62-31.364c-1.075 1.706-12.658 20.674-1.863 28.176 3.161 2.197 6.39 2.996 9.594 2.376 6.15-1.19 10.204-7.24 10.244-7.301a.301.301 0 0 1 .335-.124c.252.073 6.194 1.713 9.457-4.034 2-3.523.801-6.018-.835-7.084-1.745-1.139-4.427-1.038-6.177 1.356a.285.285 0 0 1-.048.051c-.299.254-2.945 2.464-4.233 1.89-.426-.192-.653-.624-.672-1.285-.14-4.872-1.653-8.722-4.377-11.134-2.685-2.375-6.53-3.345-11.427-2.887h.001Z" fill="#000"/><path d="M95.65 43.867a.306.306 0 0 1-.219-.515 8.185 8.185 0 0 1 5.412-2.485.307.307 0 0 1 .319.288.304.304 0 0 1-.286.319 7.574 7.574 0 0 0-5.009 2.3.3.3 0 0 1-.217.092v.001Z" fill="#000"/><path d="M67.525 39.932c-10.73 0-19.461-8.771-19.461-19.552C48.064 9.6 56.793.83 67.524.83c10.733 0 19.462 8.77 19.462 19.55 0 10.78-8.73 19.552-19.461 19.552Zm0-38.495c-10.398 0-18.856 8.499-18.856 18.943 0 10.445 8.458 18.944 18.856 18.944 10.397 0 18.855-8.498 18.855-18.944S77.92 1.437 67.525 1.437Z" fill="#FFE004" stroke="#011032" stroke-width="2" stroke-miterlimit="10"/><path d="M49.006 67.075a.304.304 0 0 1-.28-.419l11.562-28.452a.303.303 0 1 1 .56.23L49.286 66.888a.304.304 0 0 1-.28.19v-.002Z" fill="#FFE004" stroke="#011032" stroke-width="2" stroke-miterlimit="10"/><path d="M50.205 62.74s-7.665 7.189-10.714 6.792c-3.048-.397-13.327-8.724-6.099-17.862 7.227-9.14 16.35-15.992 26.068-11.683 8.065 3.576 2.825 8.364 2.825 8.364s1.673 3.151-1.549 5.413c0 0 .423 3.846-3.194 4.713 0 0-.273 4.389-4.777 5.09-2.539.396-2.558-.828-2.558-.828h-.002Z" fill="#D3AB8D"/><path d="M39.733 69.851c-.096 0-.19-.005-.28-.018-1.79-.233-6.28-3.18-8.124-7.75-1.011-2.505-1.516-6.378 1.825-10.604 9.127-11.54 18.017-15.501 26.427-11.771 2.785 1.235 4.342 2.762 4.631 4.54.325 2.01-1.078 3.666-1.565 4.171.314.767 1.146 3.46-1.6 5.495.03.791-.067 3.919-3.23 4.805-.134.934-.917 4.511-5.006 5.149-1.166.18-2.006.062-2.498-.354a1.217 1.217 0 0 1-.227-.252c-1.475 1.345-7.417 6.588-10.352 6.588v.001Zm13.654-30.885c-6.352 0-12.973 4.313-19.758 12.891-2.537 3.208-3.123 6.571-1.739 9.998 1.687 4.178 5.905 7.15 7.641 7.376 2.373.31 8.365-4.74 10.468-6.713a.302.302 0 0 1 .509.21c.001.015.02.182.212.335.246.197.792.393 1.998.205 4.201-.655 4.51-4.64 4.522-4.81a.306.306 0 0 1 .23-.277c3.308-.792 2.979-4.238 2.964-4.383a.303.303 0 0 1 .128-.282c2.968-2.084 1.518-4.902 1.455-5.02a.306.306 0 0 1 .063-.368c.02-.017 1.867-1.742 1.534-3.784-.255-1.562-1.693-2.934-4.276-4.08-1.955-.866-3.94-1.298-5.951-1.298Z" fill="#000"/><path d="M62.066 48.32a.3.3 0 0 1-.262-.154c-1.593-2.817-4.944-4.55-8.152-4.214a.304.304 0 0 1-.062-.605c3.44-.36 7.034 1.499 8.74 4.52a.305.305 0 0 1-.26.454l-.004-.001ZM60.552 53.802a.302.302 0 0 1-.258-.147c-1.936-3.211-5.746-5.247-9.475-5.064a.304.304 0 0 1-.029-.607c3.946-.19 7.975 1.96 10.022 5.356a.305.305 0 0 1-.258.462h-.002ZM57.373 58.79a.301.301 0 0 1-.294-.239c-.35-1.553-1.549-2.98-3.21-3.818-1.365-.688-3.04-1.024-5.119-1.028a.303.303 0 0 1-.303-.304c0-.169.14-.297.303-.303 2.176.006 3.938.362 5.39 1.093 1.82.918 3.14 2.499 3.529 4.228a.305.305 0 0 1-.296.37ZM50.274 63.042a.303.303 0 0 1-.283-.409l1.623-4.419a.302.302 0 1 1 .567.21l-1.623 4.42a.303.303 0 0 1-.284.198Z" fill="#000"/><path opacity=".44" d="M67.553 38.149c9.776 0 17.7-7.962 17.7-17.783 0-9.82-7.924-17.782-17.7-17.782-9.775 0-17.7 7.962-17.7 17.782 0 9.821 7.925 17.783 17.7 17.783Z" fill="#E2EAFF"/></g><defs><clipPath id="clip0_25_217"><path fill="#fff" d="M0 0h160v160H0z"/></clipPath></defs></svg>