<svg width="20" height="19" fill="none" xmlns="http://www.w3.org/2000/svg"><path d="m9.617 9.105 3.972.968-5.828 4.69-.064-3.076 1.803.43.19.045-.005-.195-.068-2.862Zm-9.16.014c.044-.407.221-.733.537-.986l7.563-6.088a1.41 1.41 0 0 1 1.079-.313c.406.043.731.221.985.537l2.283 2.836.227.282.039-.36.453-4.19 5.126 6.369-4.19-.453-.36-.04.227.283 2.283 2.836c.253.316.358.672.314 1.078a1.41 1.41 0 0 1-.538.986l-7.563 6.088a1.408 1.408 0 0 1-1.078.314 1.41 1.41 0 0 1-.986-.538L.77 10.197a1.406 1.406 0 0 1-.313-1.078Zm7.427 7.815.094.117.117-.094 7.564-6.088.117-.094-.094-.116-6.088-7.564-.094-.117-.116.094L1.82 9.16l-.117.095.094.116 6.087 7.564Z" fill="#fff" stroke="#fff" stroke-width=".3"/></svg>