<svg width="414" height="561" fill="none" xmlns="http://www.w3.org/2000/svg"><g clip-path="url('#clip0_41_4369')"><mask id="path-1-inside-1_41_4369" fill="#fff"><path d="m69.625 217.892-.202.02c-.08.009-.139.014-.118.006l-.021-.026-.022-.026c-.005-.005.015-.012.021-.019l.028-.019.11-.076c.021-.013.034-.025.06-.039l.089-.042c.568-.276 1.096-.473 1.702-.695 4.89-1.728 9.737-2.937 14.932-4.122 8.43-1.887 17.016-3.259 25.665-4.255 42.22-4.783 86.229-.244 128.226 13.056 2.007.666 4.95 1.627 6.962 2.293 1.372.481 4.176 1.486 5.551 1.97 2.341.812 6.673 2.511 9.012 3.392 1.384.563 3.457 1.412 4.825 1.971 3.257 1.303 7.102 3.035 10.324 4.438 1.37.636 6.164 2.871 7.522 3.505 1.299.645 2.868 1.42 4.073 2.017 3.23 1.554 7.654 3.92 10.841 5.593 3.433 1.898 7.331 4.027 10.713 6.041 4.864 2.831 11.145 6.676 15.86 9.796 3.98 2.561 9.75 6.533 13.641 9.278 2.231 1.625 5.557 4.058 7.675 5.602 2.163 1.651 2.522 1.939 4.415 3.388 3.738 2.81 8.253 6.522 11.897 9.457 14.245 11.899 27.907 24.611 40.986 38.341a509.311 509.311 0 0 0-30.858-49.639c-1.329-1.815-4.61-6.394-5.94-8.212-1.881-2.477-4.264-5.62-6.148-8.093-1.363-1.794-4.949-6.202-6.345-7.981l-.532-.666a29.044 29.044 0 0 0-.539-.658c-3.114-3.739-7.814-9.346-11.083-12.981-2.432-2.837-6.672-7.34-9.237-10.146-1.761-1.776-5.508-5.745-7.173-7.424-1.785-1.789-4.356-4.291-6.133-6.06-.554-.57-5.523-5.255-6.266-5.951a123.895 123.895 0 0 0-2.535-2.359c-1.877-1.708-4.577-4.111-6.444-5.799-1.291-1.139-5.898-5.058-7.245-6.229-3.148-2.603-6.908-5.716-10.136-8.227-1.348-1.04-3.503-2.758-4.813-3.765l-.697-.522-5.595-4.184c-18.937-13.933-39.097-26.226-59.833-36.642-43.892-21.926-91.386-36.174-138.807-41.206-9.986-1.022-20.197-1.702-30.246-1.531l-1.077.026-1.146.045-.287.011-.316.019-.637.038-.326.021-.396.033-.395.034a5.05 5.05 0 0 0-.304.037c-1.414-.764 27.177 117.183 26.723 117.167v-.001Z"/></mask><path d="m69.625 217.892-.202.02c-.08.009-.139.014-.118.006l-.021-.026-.022-.026c-.005-.005.015-.012.021-.019l.028-.019.11-.076c.021-.013.034-.025.06-.039l.089-.042c.568-.276 1.096-.473 1.702-.695 4.89-1.728 9.737-2.937 14.932-4.122 8.43-1.887 17.016-3.259 25.665-4.255 42.22-4.783 86.229-.244 128.226 13.056 2.007.666 4.95 1.627 6.962 2.293 1.372.481 4.176 1.486 5.551 1.97 2.341.812 6.673 2.511 9.012 3.392 1.384.563 3.457 1.412 4.825 1.971 3.257 1.303 7.102 3.035 10.324 4.438 1.37.636 6.164 2.871 7.522 3.505 1.299.645 2.868 1.42 4.073 2.017 3.23 1.554 7.654 3.92 10.841 5.593 3.433 1.898 7.331 4.027 10.713 6.041 4.864 2.831 11.145 6.676 15.86 9.796 3.98 2.561 9.75 6.533 13.641 9.278 2.231 1.625 5.557 4.058 7.675 5.602 2.163 1.651 2.522 1.939 4.415 3.388 3.738 2.81 8.253 6.522 11.897 9.457 14.245 11.899 27.907 24.611 40.986 38.341a509.311 509.311 0 0 0-30.858-49.639c-1.329-1.815-4.61-6.394-5.94-8.212-1.881-2.477-4.264-5.62-6.148-8.093-1.363-1.794-4.949-6.202-6.345-7.981l-.532-.666a29.044 29.044 0 0 0-.539-.658c-3.114-3.739-7.814-9.346-11.083-12.981-2.432-2.837-6.672-7.34-9.237-10.146-1.761-1.776-5.508-5.745-7.173-7.424-1.785-1.789-4.356-4.291-6.133-6.06-.554-.57-5.523-5.255-6.266-5.951a123.895 123.895 0 0 0-2.535-2.359c-1.877-1.708-4.577-4.111-6.444-5.799-1.291-1.139-5.898-5.058-7.245-6.229-3.148-2.603-6.908-5.716-10.136-8.227-1.348-1.04-3.503-2.758-4.813-3.765l-.697-.522-5.595-4.184c-18.937-13.933-39.097-26.226-59.833-36.642-43.892-21.926-91.386-36.174-138.807-41.206-9.986-1.022-20.197-1.702-30.246-1.531l-1.077.026-1.146.045-.287.011-.316.019-.637.038-.326.021-.396.033-.395.034a5.05 5.05 0 0 0-.304.037c-1.414-.764 27.177 117.183 26.723 117.167v-.001Z" fill="#2D519E"/><path d="m69.625 217.892-.1-.995.643-.065.323.56-.866.5Zm-.202.02-.112-.993.011-.001.1.994Zm-.118.006.76-.652.926 1.08-1.33.506-.356-.934Zm-.021-.026-.759.652-.01-.012-.01-.011.779-.629Zm-.022-.026.697-.718.043.042.038.047-.778.629Zm.021-.019-.729-.684.074-.078.088-.061.567.823Zm.028-.019-.567-.823.567.823Zm.11-.076-.566-.824.017-.012.018-.011.532.847Zm.06-.039-.474-.881.023-.012.023-.011.428.904Zm.089-.042.436.899-.008.005-.428-.904Zm1.702-.695-.344-.939.01-.004.334.943Zm14.932-4.122-.222-.975.004-.001.218.976Zm25.665-4.255-.114-.994h.001l.113.994Zm128.226 13.056.302-.954.007.002.007.003-.316.949Zm6.962 2.293.314-.949.009.002.008.003-.331.944Zm5.551 1.97-.327.945-.005-.001.332-.944Zm9.012 3.392.353-.935.012.004.012.005-.377.926Zm4.825 1.971-.371.929-.007-.003.378-.926Zm10.324 4.438.399-.917.011.005.01.005-.42.907Zm7.522 3.505.423-.907.011.006.01.005-.444.896Zm4.073 2.017-.433.901-.01-.005.443-.896Zm10.841 5.593.464-.886.01.005.009.006-.483.875Zm10.713 6.041-.503.864-.008-.005.511-.859Zm15.86 9.796-.541.841-.01-.007.551-.834Zm13.641 9.278.577-.817.006.004.006.005-.589.808Zm7.675 5.602.589-.808.009.007.009.006-.607.795Zm4.415 3.388-.601.799-.007-.005.608-.794Zm11.897 9.457.628-.778.007.005.006.006-.641.767Zm40.986 38.341.878-.477-1.602 1.167.724-.69Zm-30.858-49.639.807-.591.005.007.006.008-.818.576Zm-5.94-8.212.797-.605.005.007.005.008-.807.59Zm-6.148-8.093-.795.606-.001-.001.796-.605Zm-6.345-7.981.781-.624.006.007-.787.617Zm-.532-.666-.781.625-.009-.011.79-.614Zm-.539-.658-.763.646-.006-.006.769-.64Zm-11.083-12.981-.743.669-.008-.009-.008-.009.759-.651Zm-9.237-10.146.71-.704.014.015.013.014-.737.675Zm-7.173-7.424.708-.706.002.002-.71.704Zm-6.133-6.06-.706.708-.005-.005-.006-.006.717-.697Zm-6.266-5.951-.683.73-.008-.007.691-.723Zm-2.535-2.359-.669.744-.005-.004.674-.74Zm-6.444-5.799.661-.75.01.008-.671.742Zm-7.245-6.229.637-.771.01.008.009.008-.656.755Zm-10.136-8.227.611-.792.003.003-.614.789Zm-4.813-3.765.599-.8.01.007-.609.793Zm-.697-.522.599-.801v.001l-.599.8Zm-5.595-4.184.592-.806.007.005-.599.801Zm-59.833-36.642.447-.895.001.001-.448.894ZM78.033 101.993l.102-.995h.003l-.105.995Zm-30.246-1.531-.025-1h.008l.017 1Zm-1.077.026-.039-.999h.015l.024.999Zm-1.146.045-.041-1h.002l.039 1Zm-.287.011-.058-.998h.017l.04.998Zm-.316.019-.06-.999h.002l.058.999Zm-.637.038-.064-.998h.004l.06.998Zm-.326.021-.085-.997h.01l.011-.001.064.998Zm-.396.033-.086-.996h.002l.084.996Zm-.395.034.087.997-.024.002-.024.001-.039-1Zm-.304.037.135.991-.323.044-.287-.155.475-.88Zm26.723 117.167-.037.999-.553-.02-.276-.479.865-.5Zm.1.994-.203.02-.2-1.989.202-.021.2 1.99Zm-.191.019a2.782 2.782 0 0 1-.219.016c-.013 0-.08.001-.164-.012-.023-.004-.163-.023-.32-.106a1 1 0 0 1-.032-1.75c.07-.04.127-.062.15-.071l.712 1.869a1.006 1.006 0 0 0 .304-.184 1 1 0 0 0-.196-1.63c-.155-.083-.294-.102-.314-.105-.08-.012-.142-.011-.147-.011l-.036.001.038-.004.224 1.987Zm-.988-.337-.022-.025 1.517-1.303.022.025-1.517 1.303Zm-.041-.048-.022-.027 1.556-1.257.022.027-1.556 1.257Zm.06.062a1.001 1.001 0 0 1 .105-1.528c.03-.022.055-.038.066-.045l.014-.008.004-.002v-.001l-.016.01c-.003.002-.094.057-.185.154l1.458 1.369c-.094.1-.19.158-.198.164l-.025.015a.114.114 0 0 1 .011-.007.96.96 0 0 0 .205-.173.995.995 0 0 0-.046-1.383l-1.393 1.435Zm.15-1.559.028-.019 1.134 1.647-.028.019-1.134-1.647Zm.028-.019.11-.077 1.135 1.648-.111.076-1.134-1.647Zm.146-.1a.376.376 0 0 0-.035.024c-.002.001-.003.002-.001 0a1.281 1.281 0 0 1 .154-.097l.946 1.762a.977.977 0 0 0 .08-.05l-.003.002a.131.131 0 0 1-.014.01c-.014.01-.036.026-.063.043l-1.064-1.694Zm.163-.096.089-.042.856 1.808-.09.042-.855-1.808Zm.08-.038c.618-.3 1.19-.512 1.795-.734l.688 1.878c-.606.222-1.092.404-1.61.655l-.873-1.799Zm1.806-.738c4.946-1.748 9.838-2.967 15.043-4.154l.444 1.95c-5.186 1.182-9.987 2.381-14.82 4.09l-.667-1.886Zm15.047-4.155c8.47-1.895 17.091-3.273 25.769-4.273l.228 1.987c-8.62.993-17.17 2.36-25.56 4.238l-.437-1.952Zm25.77-4.273c42.366-4.799 86.517-.243 128.641 13.096l-.603 1.907c-41.87-13.259-85.739-17.782-127.813-13.016l-.225-1.987Zm128.655 13.101c2.009.668 4.938 1.624 6.96 2.293l-.628 1.898c-2.001-.662-4.96-1.628-6.963-2.293l.631-1.898Zm6.977 2.298c1.365.479 4.194 1.492 5.553 1.971l-.665 1.887c-1.391-.491-4.171-1.487-5.55-1.97l.662-1.888Zm5.548 1.97c2.357.817 6.725 2.529 9.037 3.401l-.705 1.871c-2.367-.892-6.662-2.576-8.987-3.383l.655-1.889Zm9.061 3.41c1.385.563 3.461 1.413 4.826 1.971l-.756 1.852c-1.37-.56-3.44-1.408-4.823-1.97l.753-1.853Zm4.819 1.969c3.276 1.31 7.148 3.054 10.352 4.449l-.799 1.834c-3.24-1.412-7.057-3.131-10.295-4.427l.742-1.856Zm10.373 4.459c1.372.636 6.167 2.872 7.525 3.505l-.846 1.813c-1.358-.634-6.151-2.868-7.52-3.504l.841-1.814Zm7.546 3.516c1.299.645 2.867 1.419 4.073 2.017l-.887 1.792c-1.204-.596-2.775-1.372-4.075-2.018l.889-1.791Zm4.063 2.012c3.251 1.564 7.699 3.943 10.871 5.608l-.929 1.771c-3.201-1.68-7.6-4.033-10.809-5.577l.867-1.802Zm10.89 5.619c3.426 1.893 7.342 4.033 10.742 6.056l-1.023 1.719c-3.365-2.003-7.244-4.122-10.686-6.025l.967-1.75Zm10.733 6.051c4.876 2.839 11.174 6.694 15.909 9.827l-1.103 1.668c-4.696-3.107-10.96-6.941-15.812-9.766l1.006-1.729Zm15.899 9.82c3.997 2.572 9.78 6.554 13.676 9.302l-1.153 1.634c-3.887-2.742-9.644-6.704-13.606-9.254l1.083-1.682Zm13.688 9.311c2.227 1.622 5.563 4.062 7.675 5.602l-1.178 1.616c-2.124-1.548-5.441-3.974-7.675-5.602l1.178-1.616Zm7.693 5.615c2.159 1.647 2.535 1.949 4.416 3.389l-1.216 1.588c-1.904-1.458-2.246-1.733-4.413-3.387l1.213-1.59Zm4.409 3.383c3.756 2.824 8.293 6.554 11.924 9.479l-1.255 1.557c-3.658-2.946-8.15-6.64-11.871-9.437l1.202-1.599Zm11.937 9.49c14.273 11.922 27.962 24.66 41.069 38.419l-1.448 1.379c-13.052-13.701-26.686-26.387-40.903-38.263l1.282-1.535Zm39.467 39.586a508.567 508.567 0 0 0-30.797-49.542l1.635-1.151a510.074 510.074 0 0 1 30.918 49.738l-1.756.955Zm-30.787-49.526c-.667-.911-1.822-2.514-2.974-4.111-1.153-1.6-2.303-3.196-2.966-4.101l1.614-1.181c.668.912 1.823 2.515 2.975 4.112a851.108 851.108 0 0 0 2.965 4.099l-1.614 1.182Zm-5.929-8.198c-1.882-2.478-4.264-5.62-6.147-8.092l1.591-1.212c1.884 2.474 4.269 5.618 6.149 8.094l-1.593 1.21Zm-6.148-8.093c-1.362-1.793-4.911-6.153-6.336-7.969l1.574-1.234c1.367 1.741 4.991 6.198 6.354 7.993l-1.592 1.21Zm-6.33-7.962-.532-.665 1.562-1.249.532.666-1.562 1.248Zm-.541-.676a25.811 25.811 0 0 0-.512-.626l1.525-1.293c.145.17.419.502.566.692l-1.579 1.227Zm-.518-.632c-3.116-3.741-7.803-9.334-11.057-12.952l1.487-1.337c3.284 3.651 7.995 9.273 11.107 13.009l-1.537 1.28Zm-11.073-12.97c-2.418-2.821-6.631-7.295-9.216-10.122l1.475-1.35c2.546 2.784 6.814 7.317 9.26 10.171l-1.519 1.301Zm-9.189-10.093c-.887-.895-2.271-2.339-3.633-3.76a350.826 350.826 0 0 0-3.539-3.663l1.42-1.409c.84.847 2.201 2.267 3.562 3.688a367.194 367.194 0 0 0 3.611 3.736l-1.421 1.408Zm-7.17-7.421c-1.792-1.797-4.331-4.268-6.131-6.059l1.412-1.417c1.754 1.747 4.358 4.282 6.135 6.063l-1.416 1.413Zm-6.142-6.07c-.532-.547-5.477-5.21-6.232-5.918l1.367-1.46c.73.684 5.724 5.392 6.299 5.983l-1.434 1.395Zm-6.24-5.925a120.758 120.758 0 0 0-2.513-2.338l1.337-1.488c.781.701 1.782 1.638 2.558 2.381l-1.382 1.445Zm-2.518-2.342c-1.879-1.711-4.559-4.096-6.441-5.798l1.342-1.483c1.852 1.675 4.573 4.097 6.446 5.802l-1.347 1.479Zm-6.432-5.789c-1.294-1.143-5.865-5.03-7.239-6.225l1.312-1.509c1.321 1.148 5.964 5.099 7.25 6.234l-1.323 1.5Zm-7.22-6.209c-3.152-2.606-6.899-5.708-10.113-8.208l1.228-1.578c3.242 2.522 7.014 5.645 10.159 8.245l-1.274 1.541Zm-10.11-8.205c-1.413-1.091-3.458-2.724-4.811-3.764l1.218-1.586c1.266.973 3.533 2.777 4.815 3.766l-1.222 1.584Zm-4.802-3.756-.697-.523 1.199-1.6.697.522-1.199 1.601Zm-.696-.522-5.595-4.185 1.198-1.601 5.595 4.184-1.198 1.602Zm-5.589-4.18c-18.89-13.899-39.002-26.162-59.689-36.554l.897-1.787c20.786 10.442 40.994 22.763 59.977 36.73l-1.185 1.611Zm-59.687-36.553c-43.79-21.875-91.17-36.087-138.466-41.106l.211-1.989c47.547 5.046 95.156 19.33 139.148 41.306l-.893 1.789ZM77.931 102.987c-9.963-1.019-20.132-1.695-30.127-1.525l-.034-2c10.103-.172 20.358.512 30.365 1.536l-.204 1.989Zm-30.12-1.525-1.077.026-.049-2 1.077-.025.049 1.999Zm-1.063.026-1.145.044-.078-1.999 1.146-.044.077 1.999Zm-1.143.044-.287.012-.082-1.999.287-.011.082 1.998Zm-.27.011-.316.018-.115-1.997.315-.018.116 1.997Zm-.314.018-.638.038-.12-1.996.639-.038.119 1.996Zm-.634.038-.325.02-.128-1.995.326-.021.127 1.996Zm-.304.019-.396.034-.17-1.993.396-.034.17 1.993Zm-.394.033-.395.035-.173-1.993.395-.034.173 1.992Zm-.443.038c.022-.001.032-.003.017-.001l-.05.006a5.352 5.352 0 0 0-.175.023l-.27-1.982c.114-.016.297-.04.4-.045l.078 1.999Zm-.818-.083a.981.981 0 0 0 1.198-.215c.19-.216.218-.443.218-.447.014-.079.005-.106.01-.012.01.15.043.419.108.826.128.799.36 2.01.681 3.583.644 3.142 1.641 7.678 2.878 13.152 2.473 10.945 5.9 25.613 9.357 40.307 3.456 14.69 6.944 29.416 9.538 40.456a2422.933 2422.933 0 0 1 3.109 13.353c.367 1.612.652 2.884.838 3.754.092.433.162.775.206 1.013.02.115.039.224.05.311.004.037.012.108.012.187 0 .027 0 .132-.032.259a1.787 1.787 0 0 1-.178.368c-.146.153-.568.366-.832.391l.073-1.999c-.262.026-.682.237-.827.389-.07.105-.154.289-.175.36-.03.12-.03.215-.03.228 0 .05.005.079.003.059a3.622 3.622 0 0 0-.032-.193 36.242 36.242 0 0 0-.194-.956c-.183-.855-.465-2.116-.832-3.726-.735-3.218-1.809-7.819-3.106-13.34-2.595-11.046-6.08-25.756-9.538-40.456-3.457-14.694-6.885-29.369-9.36-40.324-1.238-5.476-2.24-10.029-2.887-13.192a94.876 94.876 0 0 1-.697-3.668 11.595 11.595 0 0 1-.129-1.017 1.998 1.998 0 0 1 .015-.449c.008-.049.048-.308.252-.54a1.022 1.022 0 0 1 1.253-.222l-.95 1.76ZM68.76 218.393l-.001-.001 1.732-1v.001l-1.731 1Z" fill="#000" mask="url('#path-1-inside-1_41_4369')"/><path d="m72 237.906-.222.02c-.088.008-.152.012-.13.004l-.022-.029-.023-.028c-.004-.005.017-.013.024-.019l.031-.02.125-.081c.023-.013.038-.026.066-.04l.1-.044c.635-.289 1.224-.495 1.901-.726 5.449-1.798 10.827-3.04 16.586-4.251 9.345-1.928 18.837-3.303 28.384-4.273 46.593-4.65 97.303 24.39 142.852 39.132 2.175.738 5.365 1.802 7.546 2.539 1.486.532 4.523 1.641 6.011 2.177 2.536.897 7.22 2.768 9.75 3.741 1.496.618 3.735 1.553 5.213 2.168 3.521 1.434 7.668 3.335 11.145 4.878 1.478.698 6.645 3.148 8.108 3.845l4.386 2.21c3.479 1.703 8.235 4.292 11.662 6.122 3.689 2.075 7.877 4.403 11.503 6.601 5.219 3.093 11.949 7.288 16.991 10.688 4.259 2.792 10.422 7.118 14.575 10.107 2.379 1.77 5.925 4.416 8.184 6.096 2.303 1.795 2.685 2.108 4.699 3.684 3.983 3.056 8.779 7.089 12.652 10.28 15.122 12.925 29.569 26.714 43.33 41.591-9.38-18.285-20.038-36.31-31.704-53.596-1.38-1.962-4.782-6.91-6.162-8.875-1.956-2.678-4.436-6.076-6.396-8.751-1.418-1.939-5.162-6.708-6.618-8.632l-.555-.72c-.14-.188-.416-.534-.562-.713-3.256-4.046-8.171-10.113-11.602-14.049-2.546-3.07-7.004-7.949-9.699-10.988-1.856-1.926-5.797-6.226-7.552-8.045-1.881-1.939-4.596-4.653-6.469-6.57-.582-.617-5.835-5.699-6.62-6.454-.816-.8-1.866-1.808-2.683-2.56-1.985-1.853-4.846-4.462-6.822-6.294-1.367-1.236-6.255-5.491-7.682-6.764-3.344-2.828-7.338-6.209-10.772-8.938-1.434-1.131-3.727-2.999-5.121-4.093l-.743-.568-5.961-4.552c-20.188-15.16-41.792-28.574-64.111-39.983-47.246-24.019-98.793-39.841-150.666-45.776-10.924-1.209-22.112-2.054-33.16-1.984l-1.185.015-1.26.035-.316.009-.348.015-.702.034-.359.018-.435.031-.436.032c-.047.001-.18.017-.336.035-1.52-.834 22.11 102.332 21.612 102.309H72Z" fill="#FFE004"/><path d="M461.207 427.19c1.091 1.39 2.05 2.634 2.877 3.721a538.588 538.588 0 0 0-30.281-50.42 863.852 863.852 0 0 1-3.24-4.646l-.053-.075a1003.136 1003.136 0 0 0-3.183-4.567l-.003-.003-1.006-1.372c-1.858-2.53-3.983-5.426-5.72-7.783v-.001c-.914-1.244-2.744-3.594-4.379-5.693-1.03-1.323-1.983-2.547-2.582-3.333l-.002-.003-.582-.751-.004-.006c-.14-.187-.426-.541-.579-.728l-.002-.003c-3.431-4.235-8.603-10.575-12.212-14.683l-.008-.01c-1.928-2.309-4.9-5.593-7.478-8.442a836.93 836.93 0 0 1-2.731-3.028 412.292 412.292 0 0 1-4.022-4.245l-.045-.048c-1.502-1.599-2.979-3.172-3.892-4.109-1.102-1.125-2.467-2.491-3.803-3.828-1.076-1.078-2.134-2.136-3.022-3.036l-.005-.006c-.604-.633-6.136-5.929-6.972-6.723l-.005-.005a130.04 130.04 0 0 0-2.819-2.662l-.002-.002a774.557 774.557 0 0 0-4.106-3.747c-1.105-1.004-2.187-1.987-3.097-2.821-.832-.744-2.88-2.517-4.761-4.146-1.393-1.206-2.695-2.333-3.345-2.905a.022.022 0 0 0-.005-.004l-.219-.183c-3.487-2.912-7.597-6.344-11.143-9.123-.733-.57-1.653-1.299-2.577-2.032-1.022-.811-2.049-1.626-2.832-2.232l-.003-.001-.78-.589-6.301-4.742-.001-.001c-21.325-15.779-44.171-29.712-67.794-41.529-50.009-24.876-104.657-41.095-159.73-46.911-11.6-1.181-23.474-1.977-35.2-1.813h-.002l-1.253.026-1.338.048-.332.012-.364.018h-.002l-.744.041-.002.001-.374.022-.458.036h-.001l-.425.035c.012.204.038.488.08.854.11.932.317 2.333.61 4.14.588 3.612 1.514 8.821 2.67 15.094 2.29 12.436 5.478 29.042 8.693 45.646 126.751-7.65 226.11 40.347 293.79 90.272 33.879 24.992 59.824 50.47 77.301 69.701 8.739 9.616 15.361 17.67 19.8 23.323Z" fill="#E73670" stroke="#000"/><path d="M242.761 312.811c8.73-2.337 17.703 2.844 20.041 11.571 2.341 8.73-2.837 17.699-11.566 20.033l-13.363 3.578a2.528 2.528 0 0 1-3.099-1.789l-3.583-13.361c-2.341-8.73 2.838-17.699 11.566-20.033l.004.001Zm-1.593 24.748c5.512 3.568 12.866 1.596 15.858-4.245 2.558-5.001.887-11.23-3.83-14.283-5.514-3.564-12.867-1.596-15.858 4.245-2.558 5.001-.887 11.231 3.83 14.283Z" fill="#E83770"/></g><defs><clipPath id="clip0_41_4369"><path fill="#fff" transform="scale(1 -1) rotate(-60 -107.74 -63.278)" d="M0 0h503v249H0z"/></clipPath></defs></svg>