<svg width="141" height="223" fill="none" xmlns="http://www.w3.org/2000/svg"><path d="m94.633 203.751-10.428-1.879-7.096-21.674a96.286 96.286 0 0 1-28.957 11.354l10.545 27.946c1.065 2.82 4.364 4.04 6.989 2.583l29.288-16.244c.92-.51.692-1.9-.341-2.086Z" fill="#fff"/><path d="M63.306 222.999a5.209 5.209 0 0 1-1.792-.318 5.244 5.244 0 0 1-3.1-3.076l-10.545-27.946a.299.299 0 0 1 .017-.251.309.309 0 0 1 .202-.15 95.594 95.594 0 0 0 28.866-11.319.301.301 0 0 1 .44.166l7.041 21.503 10.25 1.848a1.403 1.403 0 0 1 1.147 1.165 1.41 1.41 0 0 1-.712 1.48l-29.288 16.244a5.21 5.21 0 0 1-2.526.654Zm-14.749-31.227 10.422 27.619a4.636 4.636 0 0 0 2.743 2.723 4.6 4.6 0 0 0 3.818-.296l29.287-16.245a.808.808 0 0 0 .41-.855.799.799 0 0 0-.657-.671l-10.428-1.88a.298.298 0 0 1-.233-.202l-6.98-21.317a96.228 96.228 0 0 1-28.382 11.124Z" fill="#000"/><path d="m44.242 78.531-22.762 1.85c-6.202.504-11.665 4.297-14.334 9.953l-9.835 20.837c-2.917 6.18-8.916 10.299-15.7 10.778l-20.168 1.425c-5.09 8.362-9.135 19.158-10.207 27.082l50.096-3.539c9.8-.692 18.796-5.709 24.575-13.703l27.626 76.3a98.199 98.199 0 0 0 29.531-11.578L44.242 78.531Z" fill="#fff"/><path d="M53.531 209.814a.302.302 0 0 1-.283-.198l-27.435-75.771c-5.851 7.82-14.735 12.683-24.46 13.37l-50.097 3.539a.3.3 0 0 1-.32-.34c1.078-7.968 5.197-18.897 10.248-27.197a.304.304 0 0 1 .237-.144l20.168-1.425c6.663-.47 12.584-4.535 15.45-10.607l9.835-20.837c2.705-5.733 8.293-9.612 14.582-10.123l22.763-1.85a.3.3 0 0 1 .31.207L83.35 197.842a.298.298 0 0 1-.133.351 98.068 98.068 0 0 1-29.621 11.614.337.337 0 0 1-.063.007h-.002Zm-27.626-76.903a.302.302 0 0 1 .285.198l27.537 76.052a97.433 97.433 0 0 0 28.976-11.365L44.03 78.851l-22.526 1.831c-6.073.494-11.47 4.241-14.085 9.78L-2.416 111.3c-2.959 6.268-9.07 10.466-15.952 10.951l-20.014 1.414c-4.898 8.092-8.898 18.649-10.035 26.465l49.726-3.512c9.735-.688 18.61-5.637 24.351-13.579a.3.3 0 0 1 .244-.125l.001-.002Z" fill="#000"/><path d="M25.905 133.514a.3.3 0 0 1-.279-.415l10.989-27.096a6.35 6.35 0 0 1 3.439-3.466l1.197-.495c.153-.063.33.01.394.163a.303.303 0 0 1-.163.394l-1.197.495a5.747 5.747 0 0 0-3.11 3.136l-10.99 27.096a.3.3 0 0 1-.278.188h-.002Z" fill="#000"/><path d="M101.405 54.68c9.497-4.094 26.63-19.74 35.104-25.746 5.299-3.756 3.661-6.04 1.983-5.197 0 0 2.786-3.38-.405-3.765 0 0 2.318-3.727-1.935-2.838 0 0 1.438-3.619-2.992-1.637-1.768.79-3.575 1.913-3.575 1.913s-.456-1.173-2.269-.403c-1.814.77-4.696 2.32-6.806 4.126-1.025.878-1.92 2.65-2.407 3.742-.282.633-1.613 2.095-1.613 2.095L96.591 40.559 69.24 43.144s-5.75 14.029-5.759 15.439c7.01-.378 28.797.034 37.924-3.9v-.003Z" fill="#E7C9B3"/><path d="M63.48 58.88a.304.304 0 0 1-.208-.084.296.296 0 0 1-.093-.219c.007-1.426 5.19-14.11 5.78-15.551a.303.303 0 0 1 .25-.186l27.275-2.578 19.806-13.524c.379-.419 1.327-1.517 1.538-1.989.564-1.266 1.453-2.964 2.487-3.848 2.141-1.834 5.046-3.396 6.884-4.176.754-.32 1.399-.372 1.915-.154.269.113.451.279.569.423.565-.337 1.979-1.16 3.355-1.777 1.622-.725 2.685-.814 3.252-.271.499.479.42 1.279.296 1.8 1.113-.159 1.833.019 2.2.543.512.731.07 1.86-.23 2.456.647.156 1.07.473 1.259.945.331.827-.179 1.886-.61 2.567.434.007.813.202 1.032.566.578.962-.051 2.872-3.552 5.353-2.773 1.967-6.552 5.029-10.553 8.271-8.526 6.91-18.188 14.74-24.605 17.506-7.4 3.19-23.082 3.544-32.451 3.754-2.261.05-4.214.095-5.577.168h-.016l-.003.005Zm5.968-15.457c-2.138 5.221-5.188 12.973-5.616 14.836 1.344-.063 3.155-.104 5.226-.15 9.324-.211 24.933-.563 32.227-3.706 6.34-2.732 15.968-10.536 24.464-17.42 4.008-3.249 7.794-6.318 10.585-8.295 3.395-2.407 3.697-4.03 3.383-4.552-.185-.306-.634-.36-1.091-.131a.3.3 0 0 1-.368-.46c.383-.465 1.309-1.844.995-2.628-.14-.35-.545-.568-1.205-.647a.302.302 0 0 1-.22-.457c.242-.39.844-1.626.46-2.174-.257-.368-.977-.44-2.077-.21a.302.302 0 0 1-.343-.406c.122-.309.384-1.272 0-1.637-.205-.195-.814-.407-2.587.386-1.729.773-3.523 1.883-3.54 1.894a.3.3 0 0 1-.44-.146.81.81 0 0 0-.438-.394c-.353-.144-.849-.09-1.432.159-1.797.763-4.638 2.288-6.728 4.078-.997.855-1.885 2.643-2.327 3.635-.293.658-1.528 2.021-1.667 2.174a.317.317 0 0 1-.052.047L96.758 40.806a.292.292 0 0 1-.142.05l-27.17 2.568.002-.001Z" fill="#000"/><path d="M125.884 26.967a.302.302 0 0 1-.268-.438c.408-.808.438-1.735.471-2.715.031-.955.063-1.941.468-2.838.575-1.275 1.806-2.097 2.682-2.604a.3.3 0 1 1 .302.52c-.804.466-1.931 1.214-2.434 2.331-.356.788-.385 1.673-.415 2.61-.033 1.004-.067 2.042-.535 2.969a.3.3 0 0 1-.269.165h-.002ZM130.221 21.126a.3.3 0 0 1-.182-.542c1.103-.83 2.386-1.61 3.629-2.363.784-.476 1.524-.924 2.222-1.385a.301.301 0 1 1 .333.502c-.708.467-1.488.94-2.242 1.397-1.23.746-2.501 1.517-3.578 2.33a.3.3 0 0 1-.181.06l-.001.001ZM132.304 24.266a.299.299 0 0 1-.244-.124.303.303 0 0 1 .067-.421c.938-.68 1.9-1.328 2.83-1.955a99.076 99.076 0 0 0 2.815-1.943.303.303 0 0 1 .422.067.303.303 0 0 1-.068.421c-.938.681-1.9 1.33-2.832 1.956a96.13 96.13 0 0 0-2.812 1.942.308.308 0 0 1-.177.057h-.001ZM133.958 27.338a.3.3 0 0 1-.175-.546c.494-.354 1.426-1.027 2.359-1.698.933-.673 1.867-1.346 2.361-1.7a.3.3 0 0 1 .42.07.3.3 0 0 1-.07.42c-.494.354-1.426 1.026-2.359 1.698-.933.673-1.867 1.346-2.361 1.7a.299.299 0 0 1-.175.056Z" fill="#000"/><path d="M20.171 63.041 6.028 64.544l-15.97 18.578s-1.575 7.653-5.475 8.47c0 0-3.14 5.267-6.086 2.654 0 0-2.595.727-3.35-.764 0 0-1.818.97-2.84-1.357 0 0-2.685-2.062.296-7.434 2.98-5.374 18.04-26.052 23.388-30.876 6.575-5.928 34.457-7.9 34.457-7.9L20.171 63.042Z" fill="#E7C9B3"/><path d="M-19.753 95.275c-.648 0-1.26-.234-1.828-.699-.58.133-2.546.477-3.397-.72-.31.105-.854.217-1.442.013-.638-.22-1.15-.745-1.52-1.56-.42-.37-2.572-2.63.278-7.766 2.915-5.254 18.01-26.046 23.45-30.953 6.577-5.93 33.496-7.896 34.639-7.977a.297.297 0 0 1 .277.143.303.303 0 0 1 .002.313L20.429 63.194a.305.305 0 0 1-.228.145L6.178 64.83-9.665 83.26c-.185.853-1.779 7.661-5.563 8.597-.36.57-2.046 3.066-4.096 3.383a2.708 2.708 0 0 1-.43.034v.002Zm-1.75-1.33c.072 0 .143.027.2.076.592.525 1.209.73 1.886.625 1.987-.308 3.724-3.18 3.742-3.209a.302.302 0 0 1 .197-.14c3.663-.768 5.226-8.161 5.24-8.236a.295.295 0 0 1 .068-.136L5.8 64.347a.294.294 0 0 1 .197-.102l13.994-1.487 9.9-16.496c-4.031.325-27.796 2.455-33.698 7.776-5.408 4.877-20.425 25.568-23.326 30.8-2.804 5.053-.475 6.971-.374 7.05.038.03.071.072.09.117.303.688.702 1.123 1.19 1.294.634.223 1.229-.081 1.235-.084a.312.312 0 0 1 .233-.02c.077.024.14.08.178.15.635 1.256 2.976.618 3 .612a.28.28 0 0 1 .08-.011h-.002Z" fill="#000"/><path d="M.821 49.286s6.23 13.932 5.507 15.77l16.036-1.253L8.932 86.377l40.252-2.843S61 62.158 62.09 60.998l32.424-2.418V40.038S33.05 42.47.82 49.287v-.001Z" fill="#FFE108"/><path d="M96.619 1.037c-7.146-2.9-15.204.489-17.999 7.568-1.273 3.223-1.233 6.656-.139 9.713l-3.375 6.192 6.64-1.004a14.141 14.141 0 0 0 4.753 3.166c7.146 2.9 15.205-.487 17.999-7.566 2.794-7.079-.733-15.169-7.88-18.069Z" fill="#fff"/><path d="M91.6 7.257a4.618 4.618 0 0 0-4.618 4.619c0 1.57.785 2.949 1.98 3.787v1.49a.66.66 0 0 0 .66.66h3.958a.66.66 0 0 0 .66-.66v-1.49a4.616 4.616 0 0 0-2.64-8.406Zm-1.979 12.536a.66.66 0 0 0 .66.66h2.639a.66.66 0 0 0 .66-.66v-.66H89.62v.66Z" fill="#E83770"/><path d="M33.05 64.486a.302.302 0 0 1-.205-.081c-.846-.787-2.178-.795-3.463-.735l-6.12.286a.296.296 0 0 1-.316-.287.3.3 0 0 1 .288-.315l6.121-.285c1.416-.066 2.885-.051 3.902.895a.3.3 0 0 1-.206.522h-.001Z" fill="#000"/><path d="m46.281 29.772-4.049 13.685-2.69.469s5.034 3.868 11.825 4.012c6.79.145 2.466-4.026 2.466-4.026l-1.673-.492 1.114-4.095-6.991-9.553h-.002Z" fill="#E7C9B3"/><path d="M39.542 44.227a.302.302 0 0 1-.052-.598l2.505-.438 3.998-13.505a.301.301 0 0 1 .532-.093l6.991 9.553a.302.302 0 0 1 .048.257l-1.036 3.81 1.39.41a.3.3 0 1 1-.17.576l-1.673-.492a.3.3 0 0 1-.205-.368l1.076-3.955-6.547-8.944-3.877 13.1a.305.305 0 0 1-.236.212l-2.69.47a.352.352 0 0 1-.053.003l-.001.002Z" fill="#000"/><path d="M43.115 22.231c.432-2.71 1.988-5.32 4.414-6.603 2.427-1.283 5.715-.986 7.595 1.014a10.319 10.319 0 0 1 4.156-2.388c2.392-.704 5.076-.488 7.242.748 2.166 1.236 3.747 3.516 3.975 6 .237 2.557-.942 5.113-2.761 6.927-1.819 1.812-4.216 2.948-6.682 3.665a24.827 24.827 0 0 1-12.169.413c-1.577-.345-4.195-.916-4.892-2.572-.925-2.195-1.25-4.857-.877-7.204h-.001Z" fill="#000"/><path d="M61.763 24.006s-.274 15.314-6.001 17.325c-5.726 2.012-9.375-4.15-9.862-7.688 0 0-1.773.291-2.938-.359-1.617-.9-2.869-3.265-.978-5.29 3.025-3.237 4.593.378 5.03 2.78l2.242.505s-1.255-4.496.705-6.027c1.115-.87 11.8-1.247 11.8-1.247l.002.001Z" fill="#E7C9B3"/><path d="M53.55 42.03c-1.146 0-2.248-.32-3.293-.957-2.506-1.529-4.18-4.664-4.61-7.095-.58.056-1.875.104-2.832-.43-1.081-.603-1.864-1.687-2.042-2.832-.113-.729-.034-1.829.992-2.927 1.061-1.134 2.063-1.573 2.98-1.305 1.348.396 2.18 2.31 2.528 4.04l1.577.356c-.272-1.243-.791-4.524.926-5.864 1.16-.906 10.873-1.272 11.976-1.31a.284.284 0 0 1 .221.086.3.3 0 0 1 .09.22c-.01.633-.346 15.547-6.201 17.604a6.974 6.974 0 0 1-2.313.414Zm-7.65-8.688a.303.303 0 0 1 .298.26c.32 2.326 1.924 5.463 4.372 6.957 1.571.959 3.284 1.123 5.092.488 5.02-1.763 5.708-14.538 5.79-16.729-4.118.156-10.567.596-11.305 1.172-1.78 1.39-.611 5.666-.6 5.71a.305.305 0 0 1-.072.289.303.303 0 0 1-.284.086l-2.243-.506a.304.304 0 0 1-.23-.24c-.278-1.529-1.006-3.43-2.143-3.765-.68-.2-1.478.184-2.37 1.138-.682.73-.97 1.566-.836 2.422.149.95.832 1.893 1.74 2.4 1.06.591 2.726.326 2.743.323a.304.304 0 0 1 .049-.004l-.002-.001Z" fill="#000"/><path d="M46.433 33.102a.302.302 0 0 1-.284-.202 3.177 3.177 0 0 0-2.07-1.967.3.3 0 0 1-.205-.373.3.3 0 0 1 .374-.204 3.787 3.787 0 0 1 2.47 2.346.302.302 0 0 1-.285.4Z" fill="#000"/></svg>