<svg width="165" height="35" fill="none" xmlns="http://www.w3.org/2000/svg"><path d="M44.076 22.886c-1.265 1.183-2.816 1.754-4.693 1.754-1.878 0-3.388-.571-4.694-1.754-1.265-1.143-1.918-2.652-1.918-4.529v-9.3h3.265v9.137c0 .98.327 1.795.939 2.448.612.653 1.428.938 2.367.938.939 0 1.714-.326 2.326-.938.612-.653.939-1.469.939-2.448V9.056h3.306v9.301c0 1.836-.653 3.346-1.919 4.529h.082ZM49.055 24.395V9.056h3.632l4 6.038c.326.49.693 1.06 1.142 1.713l1.061 1.591.45.653V9.056h3.305v15.339h-3.51L55.3 18.643c-.408-.612-.857-1.305-1.347-2.04L52.77 14.85l-.368-.653v10.158h-3.305l-.041.041ZM65.91 24.395V9.056h3.306v15.339H65.91ZM72.562 24.395V9.056h3.632l4 6.038c.326.49.694 1.06 1.143 1.713l1.06 1.591.45.653V9.056h3.305v15.339h-3.51l-3.836-5.752c-.408-.612-.857-1.305-1.346-2.04l-1.184-1.754-.367-.653v10.158h-3.306l-.04.041ZM87.866 24.395 94.52 9.056h3.305l6.448 15.339h-3.183l-1.02-2.448h-7.795l-1.061 2.448h-3.387.04Zm5.591-5.058h5.55l-1.183-2.856-1.632-3.916a52.52 52.52 0 0 1-1.51 3.957l-1.225 2.815ZM105.578 22.518l1.184-2.57c1.592 1.143 3.265 1.714 5.061 1.714.816 0 1.51-.163 2.081-.53.571-.368.857-.776.857-1.306s-.245-.898-.735-1.142c-.489-.286-1.183-.49-2.081-.694-.653-.163-1.224-.285-1.714-.448-.49-.123-.98-.327-1.551-.572-.571-.244-1.02-.53-1.347-.856a3.317 3.317 0 0 1-.857-1.224c-.245-.49-.367-1.06-.367-1.673 0-1.387.571-2.488 1.673-3.263 1.102-.775 2.449-1.142 4.041-1.142 2.081 0 3.958.53 5.591 1.631l-1.225 2.57c-1.346-.816-2.816-1.264-4.407-1.264-.572 0-1.102.122-1.633.326-.53.204-.775.612-.775 1.142 0 .45.245.816.694 1.061.449.245 1.183.49 2.163.694 3.877.856 5.836 2.488 5.836 4.895 0 1.55-.613 2.733-1.878 3.549-1.265.816-2.734 1.224-4.448 1.224-2.49 0-4.571-.694-6.244-2.08l.081-.042ZM120.026 22.518l1.183-2.57c1.592 1.143 3.265 1.714 5.061 1.714.816 0 1.51-.163 2.081-.53.571-.368.857-.776.857-1.306s-.245-.898-.734-1.142c-.49-.286-1.184-.49-2.082-.694-.653-.163-1.224-.285-1.714-.448-.49-.123-.979-.327-1.551-.572-.571-.244-1.02-.53-1.347-.856a3.329 3.329 0 0 1-.857-1.224c-.244-.49-.367-1.06-.367-1.673 0-1.387.571-2.488 1.673-3.263 1.102-.775 2.449-1.142 4.041-1.142 2.081 0 3.958.53 5.591 1.631l-1.224 2.57c-1.347-.816-2.816-1.264-4.408-1.264-.571 0-1.102.122-1.633.326-.53.204-.775.612-.775 1.142 0 .45.245.816.694 1.061.449.245 1.183.49 2.163.694 3.877.856 5.836 2.488 5.836 4.895 0 1.55-.612 2.733-1.877 3.549-1.266.816-2.735 1.224-4.449 1.224-2.489 0-4.571-.694-6.244-2.08l.082-.042ZM133.616 24.395l6.652-15.339h3.306l6.448 15.339h-3.184l-1.02-2.448h-7.795l-1.061 2.448h-3.387.041Zm5.591-5.058h5.55l-1.183-2.856-1.633-3.916a52.304 52.304 0 0 1-1.51 3.957l-1.224 2.815ZM162.592 22.886c-1.266 1.183-2.816 1.754-4.694 1.754-1.877 0-3.387-.571-4.693-1.754-1.265-1.143-1.918-2.652-1.918-4.529v-9.3h3.265v9.137c0 .98.326 1.795.938 2.448.613.653 1.429.938 2.368.938.938 0 1.714-.326 2.326-.938.612-.653.938-1.469.938-2.448V9.056h3.306v9.301c0 1.836-.653 3.346-1.918 4.529h.082ZM24.976.734v24.559c0 .734-.163 1.468-.448 2.12-.368.857-1.184 1.673-2.286 2.326-.898.53-2.04.938-3.102 1.142-3.877.735-5.387 1.306-5.999 2.203l-.286.449-.285-.449c-.612-.897-2.122-1.428-6-2.203A10.512 10.512 0 0 1 3.47 29.74c-1.102-.653-1.918-1.469-2.285-2.325-.286-.694-.45-1.387-.45-2.122V.735h6.571v1.143h2.326V.734h6.571v1.143h2.326V.734h6.57M25.835 0h-8.04v1.142h-.857V0h-8.04v1.142H8.04V0H0v25.293c0 .856.163 1.672.53 2.447.45 1.02 1.347 1.917 2.612 2.652.98.57 2.204 1.02 3.306 1.224 3.592.693 5.06 1.183 5.55 1.876l.286.449.612.856.612-.856.286-.449c.49-.693 2-1.183 5.55-1.876a10.403 10.403 0 0 0 3.306-1.224c1.265-.735 2.163-1.632 2.612-2.652.327-.775.53-1.59.53-2.447V0h.041Z" fill="#fff"/><path d="M10.57 3.835s-.204-.123-.367-.123h-.53v.98h.53s.286-.041.367-.123a.463.463 0 0 0 .123-.326.463.463 0 0 0-.123-.327v-.081Z" fill="#fff"/><path d="M18.773 1.101v1.143h-3.06V1.1H9.875v1.143h-3.06V1.1H.978v5.426h23.59V1.101h-5.837.041ZM3.347 5.507h-.368l-.898-2.121h.368l.49 1.224.163.49c.081-.205.122-.368.163-.49l.49-1.224h.408l-.898 2.121h.082Zm4.203 0H5.836V3.386h1.632v.326H6.203v.53h1.184v.327H6.203v.612H7.51v.326h.041Zm3.102 0-.368-.53h-.653v.49h-.367V3.344h.898c.286 0 .53.082.694.245a.74.74 0 0 1 .245.571c0 .163 0 .286-.123.408a.756.756 0 0 1-.326.286l.449.611h-.45v.041Zm2.57 0h-.367V3.386h.368v2.121Zm3.551-1.795h-.734v1.795h-.368V3.712h-.734v-.326h1.877v.326h-.04Zm3.102 1.795-.163-.367h-1.184l-.163.367h-.367l.938-2.121h.368l.938 2.121h-.367Zm3.387-.122s-.367.163-.612.163c-.367 0-.612-.082-.857-.286l.163-.285c.204.163.45.245.694.245.123 0 .245 0 .327-.082a.224.224 0 0 0 .122-.204c0-.04 0-.122-.082-.163-.04-.04-.081-.082-.163-.082h-.204l-.245-.122s-.122-.04-.204-.082c-.081 0-.122-.081-.163-.122-.04-.04-.082-.082-.122-.163 0-.082-.041-.123-.041-.204 0-.204.081-.327.245-.449a.82.82 0 0 1 .53-.163c.286 0 .53.081.735.245l-.163.285s-.368-.163-.613-.163h-.163a.31.31 0 0 0-.163.082c-.04 0-.082.081-.082.163 0 .081 0 .122.123.163.081 0 .204.082.326.122l.286.082.245.122c.081.041.122.123.204.204a.58.58 0 0 1 .081.245.581.581 0 0 1-.244.49l.04-.041Z" fill="#fff"/><path d="M19.181 3.875v-.081s-.163.367-.245.49l-.244.53h.897l-.244-.53-.082-.205s-.082-.163-.082-.204ZM10.325 17.42c.123-.409.368-.45.735-.45-.245.164-.49.286-.735.45Z" fill="#fff"/><path d="M12.815 6.813H1.02v18.52c0 .694.164 1.347.408 2 .776 1.753 3.224 2.896 5.102 3.263 3.795.734 5.51 1.305 6.244 2.325.735-1.06 2.49-1.632 6.244-2.325 1.877-.367 4.326-1.51 5.101-3.264.286-.612.409-1.305.409-1.999V6.813H12.732h.082Zm-6.49 9.954.082-1.428-1.102.897.531-1.305-1.347.53.898-1.101-1.428.081 1.183-.775-2.938-.367 2.938-.367-1.183-.775 1.428.081-.898-1.101 1.306.53-.53-1.305 1.102.897-.082-1.428.775 1.184.368-2.244.367 2.243.775-1.183-.081 1.428 1.102-.897-.53 1.305 1.305-.53-.898 1.101 1.429-.081-1.184.775 2.938.367-2.938.367 1.184.775-1.429-.081.898 1.101-1.347-.53.53 1.305-1.101-.897.082 1.428-.776-1.184-.367 2.244-.367-2.244-.776 1.184h.082Zm11.958.203s2.367-.652 4.694-2.692c-.49 2.733-5.183 3.794-5.183 3.794 2.203-.122 3.795-1.02 4.652-1.795-.857 2.162-3.632 2.978-5.469 3.223 1.633.244 3.306-.49 4.775-1.102-.653 1.55-3.305 2.407-5.387 2.203a5.503 5.503 0 0 0 2 .245c-.571 1.06-1.51 1.346-2.612 1.387.53.081 1.061.081 1.592.04-.45.572-1.02.939-1.714 1.143 1.306.612 1.918 1.754 2.163 3.182 0 .163-.041.408.081.53.204 0 .368 0 .49-.163.653-2.04-2.163-2.488-.816-3.794 1.183 0 .367-.49.367-1.142 0-.612.408-.694.816-.898-.081.123-.122.245-.163.368.204-.123.449-.898.53-.735.694 1.102.123.816-.204 1.632 0 .245.123.449.164.653.122.49-.245.775-.694.775 0-.082.082-.123.122-.204-1.877.408 1.062 1.387.409 3.671-.286.572-.735.694-1.306.898 0 0-.245.204-.286.367 0 .122-.163.082-.245.082-1.714 0-3.387 0-5.101.04h-.164c-.245-.163-.204-.49-.081-.734.04-.122.122-.163.204-.204 0 0-.204 0-.327.082-.245.204-.285.49-.245.816-.081 0-.204.081-.285 0-.286-.408-.163-1.02.326-1.306.286-.163.939-.081 1.265.123-.163.244-.244.448-.163.775.286-.775 1.02-.612 1.674-.612-.327-.204-.735-.286-1.225-.245-.734-.49-1.306-1.06-1.959-1.673-.245.327-.49.572-.857.694.123-.245.245-.408.245-.694-.286.368-1.102 1.387-.694 1.836.408.122.612.53.327.857 0-.082-.082-.204-.123-.245-.245-.163-.449-.163-.694-.081 0 .122-.122.203-.204.244h-.163l-.326.286s-.123-.367-.082-.612c-.122.122-.163.367-.408.367l-.245.245s-.082-.367-.04-.53c0 0-.082.081-.205.122h-.245l-.163.163c-.04-.571 1.918-1.51 2.53-3.182a1.094 1.094 0 0 1-.612.408c.245-.612.327-1.265.45-1.917-.164.326-.327.652-.531.938-.204-1.836.653-4.039 1.836-5.426 0 0 .123-.204.082-.285 0-.082-.123-.204-.123-.245-.04-.04.082-.163.082-.204-.449 0-1.184-.082-1.47.326v.082c-.652-.734-.163-1.346.613-1.591-.245-1.754 1.714-1.632 2.897-1.55l-.57.367c.815.081 1.55.245 2.04 1.02-.245-.041-.45-.123-.694-.163.53.448.898.897 1.02 1.631a3.59 3.59 0 0 0-.408-.244c.286.53.408 1.02.286 1.631-.082-.04-.123-.122-.204-.163l.122.245.123.245a4.4 4.4 0 0 0 .897-1.265c1.102-2.284.123-4.977-1.06-6.609-.409-.57-1.266-1.59-2.857-2.366.408 0 1.428-.04 2.53.572a4.015 4.015 0 0 1 1.51 1.55c-.082-.367-.163-.735-.327-1.143-.285-.897-.653-1.713-1.02-2.325.367.163 1.796.816 2.408 2.366a4.4 4.4 0 0 1 .326 1.591c.123-.408.204-.816.286-1.305.163-1.224.04-2.285-.082-3.06.286.327 1.143 1.469 1.102 3.06 0 .775-.204 1.346-.408 1.754.327-.367.735-.857 1.061-1.55.572-1.183.613-2.285.613-2.897.163.327.816 1.795.244 3.509a4.577 4.577 0 0 1-1.51 2.08c.204-.122.368-.245.572-.408 1.591-1.183 2.53-2.733 3.06-3.957 0 .571-.04 2.244-1.224 3.794-.816 1.06-1.755 1.632-2.285 1.877a13.057 13.057 0 0 0 2.244-1.265c1.184-.857 2.041-1.795 2.653-2.53 0 2.734-5.142 5.182-5.142 5.182l.122.04Z" fill="#fff"/><path d="m10.284 17.42.735-.45c-.367 0-.612 0-.735.45ZM7.428 14.4a1.142 1.142 0 1 0 0-2.285 1.142 1.142 0 0 0 0 2.285Z" fill="#fff"/></svg>