<svg width="23" height="29" fill="none" xmlns="http://www.w3.org/2000/svg"><g filter="url('#filter0_d_75_543')"><path d="M11.62 16.085c3.807-.979 6.07-4.76 5.045-8.43-1.024-3.67-4.955-5.859-8.762-4.88-3.807.979-6.07 4.76-5.045 8.43 1.025 3.67 4.956 5.858 8.762 4.88ZM7.961 2.982c3.689-.948 7.497 1.173 8.49 4.728.992 3.555-1.2 7.22-4.889 8.168-3.688.948-7.496-1.173-8.489-4.729-.993-3.555 1.2-7.219 4.888-8.167Z" fill="#FFF9CB"/><path d="M11.62 16.085c3.807-.979 6.07-4.76 5.045-8.43-1.024-3.67-4.955-5.859-8.762-4.88-3.807.979-6.07 4.76-5.045 8.43 1.025 3.67 4.956 5.858 8.762 4.88ZM7.961 2.982c3.689-.948 7.497 1.173 8.49 4.728.992 3.555-1.2 7.22-4.889 8.168-3.688.948-7.496-1.173-8.489-4.729-.993-3.555 1.2-7.219 4.888-8.167Z" stroke="#E4336C" stroke-width="4" stroke-miterlimit="10" stroke-linejoin="round"/></g><g filter="url('#filter1_d_75_543')"><path d="M20.77 23.635a.111.111 0 0 0 .038-.018.104.104 0 0 0 .02-.15l-6.805-8.63a.113.113 0 0 0-.156-.02.104.104 0 0 0-.02.15l6.805 8.63c.028.035.075.05.117.038Z" fill="#FFF9CB"/><path d="M20.77 23.635a.111.111 0 0 0 .038-.018.104.104 0 0 0 .02-.15l-6.805-8.63a.113.113 0 0 0-.156-.02.104.104 0 0 0-.02.15l6.805 8.63c.028.035.075.05.117.038Z" stroke="#E4336C" stroke-width="4" stroke-miterlimit="10" stroke-linejoin="round"/></g><defs><filter id="filter0_d_75_543" x=".599" y=".553" width="18.325" height="20.754" filterUnits="userSpaceOnUse" color-interpolation-filters="sRGB"><feFlood flood-opacity="0" result="BackgroundImageFix"/><feColorMatrix in="SourceAlpha" values="0 0 0 0 0 0 0 0 0 0 0 0 0 0 0 0 0 0 127 0" result="hardAlpha"/><feOffset dy="3"/><feComposite in2="hardAlpha" operator="out"/><feColorMatrix values="0 0 0 0 0 0 0 0 0 0 0 0 0 0 0 0 0 0 0.25 0"/><feBlend in2="BackgroundImageFix" result="effect1_dropShadow_75_543"/><feBlend in="SourceGraphic" in2="effect1_dropShadow_75_543" result="shape"/></filter><filter id="filter1_d_75_543" x="11.813" y="12.805" width="11.05" height="15.823" filterUnits="userSpaceOnUse" color-interpolation-filters="sRGB"><feFlood flood-opacity="0" result="BackgroundImageFix"/><feColorMatrix in="SourceAlpha" values="0 0 0 0 0 0 0 0 0 0 0 0 0 0 0 0 0 0 127 0" result="hardAlpha"/><feOffset dy="3"/><feComposite in2="hardAlpha" operator="out"/><feColorMatrix values="0 0 0 0 0 0 0 0 0 0 0 0 0 0 0 0 0 0 0.25 0"/><feBlend in2="BackgroundImageFix" result="effect1_dropShadow_75_543"/><feBlend in="SourceGraphic" in2="effect1_dropShadow_75_543" result="shape"/></filter></defs></svg>