<svg width="160" height="160" fill="none" xmlns="http://www.w3.org/2000/svg"><path d="m119.352 139.786-42.859 3.278-27.227-118.46 40.096-15.3 29.99 130.482Z" fill="#fff"/><path d="m103.49 70.772-41.398 9.636-1.804-7.85 41.214-10.431 1.988 8.645Z" fill="#FFF9CB"/><path d="m80.988 18.73 26.366 114.714-9.269.858L72.258 21.934l8.73-3.204Z" fill="#FFF9CB"/><path d="m114.561 118.943-42.417 5.199-1.804-7.849 42.234-5.995 1.987 8.645Z" fill="#FFF9CB"/><path d="M117.759 132.854c-.009.002-.019.005-.029.005l-42.708 3.935a.22.22 0 0 1-.24-.196.217.217 0 0 1 .198-.237l42.707-3.936a.22.22 0 0 1 .24.197.216.216 0 0 1-.17.232h.002ZM50.57 30.274a.22.22 0 0 1-.255-.137.217.217 0 0 1 .129-.28l40.223-14.746a.22.22 0 0 1 .282.129.217.217 0 0 1-.13.28L50.598 30.264a.295.295 0 0 1-.028.009ZM49.315 24.816a.22.22 0 0 1-.253-.134.216.216 0 0 1 .126-.28l40.094-15.3a.22.22 0 0 1 .284.125.216.216 0 0 1-.126.28l-40.095 15.3a.176.176 0 0 1-.031.01Z" fill="#010101"/><path d="M77.948 47.119a6.838 6.838 0 0 0-9.898 0c-2.733 2.825-2.733 7.405 0 10.228l4.185 4.325a1.056 1.056 0 0 0 1.53 0l4.185-4.325c2.733-2.825 2.733-7.404 0-10.228h-.002Zm-4.702 9.829c-2.805.148-5.107-2.233-4.966-5.132.122-2.48 2.073-4.496 4.473-4.622 2.804-.146 5.107 2.233 4.966 5.131-.122 2.48-2.073 4.497-4.473 4.623Z" fill="#E83770"/><path d="m119.401 139.999-.032.005-42.859 3.277a.217.217 0 1 1-.035-.433l42.859-3.278a.22.22 0 0 1 .236.2.218.218 0 0 1-.169.229Z" fill="#010101"/><path d="m157.305 120.165-37.953 19.621L89.362 9.304l42.814 1.532 25.129 109.329Z" fill="#fff"/><path d="m139.8 63.217-36.311 7.555-1.987-8.645 36.599-6.3 1.699 7.39Z" fill="#FFF9CB"/><path d="m122.79 15.735 23.677 103.016-5.425 2.62-24.298-105.715 6.046.079Z" fill="#FFF9CB"/><path d="m149.293 104.522-34.697 14.574-1.987-8.646 34.986-13.318 1.698 7.39Z" fill="#FFF9CB"/><path d="M117.759 132.854a.221.221 0 0 1-.247-.117.219.219 0 0 1 .101-.292l34.089-16.466-22.973-99.949-37.988-.497a.217.217 0 1 1 .005-.434l38.162.5a.22.22 0 0 1 .212.17l23.049 100.283a.217.217 0 0 1-.117.244l-34.245 16.541a.184.184 0 0 1-.048.017Z" fill="#010101"/><path d="M119.4 139.999a.22.22 0 0 1-.14-.016.217.217 0 0 1-.123-.149L89.147 9.352a.215.215 0 0 1 .045-.187.221.221 0 0 1 .178-.078l42.815 1.532a.221.221 0 0 1 .207.17l25.128 109.328a.219.219 0 0 1-.112.242l-37.954 19.619a.21.21 0 0 1-.053.019l-.001.002ZM89.64 9.532l29.863 129.93 37.551-19.412-25.053-109.002-42.362-1.516Z" fill="#010101"/><path d="m76.493 143.064-46.24 16.676L.263 29.258l49.003-4.654 27.227 118.46Z" fill="#fff"/><path d="m62.092 80.409-41.25 8.92-1.961-8.537 41.407-8.233 1.804 7.85Z" fill="#FFF9CB"/><path d="M19.394 33.467 45.31 146.224l-7.175 2.476-26.3-114.43 7.56-.803Z" fill="#FFF9CB"/><path d="m72.144 124.142-40.367 12.759-1.963-8.537 40.526-12.071 1.804 7.849Z" fill="#FFF9CB"/><path d="M34.935 150.642a.225.225 0 0 1-.155-.023.215.215 0 0 1-.107-.142L8.043 34.612a.215.215 0 0 1 .035-.174.215.215 0 0 1 .156-.09l42.265-4.503a.22.22 0 0 1 .242.193.215.215 0 0 1-.194.24L8.525 34.754l26.52 115.39 39.885-13.771c.115-.041.24.02.28.134a.216.216 0 0 1-.135.277l-40.117 13.851-.024.007Z" fill="#010101"/><path d="M30.302 159.952a.222.222 0 0 1-.263-.164L.049 29.306a.218.218 0 0 1 .193-.264l49.003-4.654a.22.22 0 0 1 .235.168l27.227 118.46a.216.216 0 0 1-.138.252l-46.24 16.676-.027.008ZM.532 29.451l29.88 130 45.824-16.526L49.095 24.839.533 29.451Z" fill="#010101"/></svg>