<svg width="30" height="32" fill="none" xmlns="http://www.w3.org/2000/svg"><g filter="url('#filter0_d_75_517')"><path d="m10.903 28.146-5.73-3.764c-3.13-2.056-3.78-6.377-1.395-9.265l7.258-8.783A8.535 8.535 0 0 1 22.3 4.637a8.542 8.542 0 0 1 2.883 11.091L19.927 25.8a6.285 6.285 0 0 1-9.024 2.346Z" fill="#38A23A"/><path d="M15.23 29.247a6.428 6.428 0 0 1-4.398-.993L5.103 24.49a6.43 6.43 0 0 1-2.824-4.41 6.43 6.43 0 0 1 1.399-5.046l7.257-8.784a8.654 8.654 0 0 1 11.437-1.723 8.645 8.645 0 0 1 2.926 11.26L20.04 25.86a6.427 6.427 0 0 1-4.812 3.387h.002ZM16.473 3.44a8.384 8.384 0 0 0-5.335 2.977L3.879 15.2a6.169 6.169 0 0 0-1.343 4.842 6.171 6.171 0 0 0 2.71 4.232l5.729 3.764a6.167 6.167 0 0 0 4.928.813 6.168 6.168 0 0 0 3.91-3.11l5.257-10.072A8.387 8.387 0 0 0 22.23 4.746a8.382 8.382 0 0 0-5.759-1.306Z" fill="#000"/><path d="M11.97 27.113a7.27 7.27 0 0 1-.16.02.13.13 0 1 1-.029-.258 6.145 6.145 0 0 0 4.78-3.272l5.256-10.071a8.406 8.406 0 0 0-.072-7.922.13.13 0 1 1 .228-.124 8.664 8.664 0 0 1 .074 8.166L16.79 23.723a6.413 6.413 0 0 1-4.82 3.39Z" fill="#000"/><path d="m9.661 21.243-5.89-3.87a2.802 2.802 0 0 1-.535-4.227l2.23-2.451a1.986 1.986 0 0 1 2.56-.324l6.809 4.473a1.988 1.988 0 0 1 .57 2.752L13.54 20.44a2.8 2.8 0 0 1-3.879.805v-.001Z" fill="#E2326A"/><path d="M11.593 21.806a2.909 2.909 0 0 1-2.003-.454l-5.89-3.87a2.93 2.93 0 0 1-.56-4.422l2.23-2.452a2.105 2.105 0 0 1 2.727-.345l6.81 4.474a2.12 2.12 0 0 1 .607 2.931l-1.866 2.843a2.91 2.91 0 0 1-2.055 1.296ZM6.683 10.19a1.852 1.852 0 0 0-1.121.593l-2.23 2.451a2.67 2.67 0 0 0 .51 4.032l5.89 3.87c.597.391 1.311.526 2.008.383a2.653 2.653 0 0 0 1.69-1.15l1.867-2.843a1.86 1.86 0 0 0-.533-2.573l-6.81-4.474a1.852 1.852 0 0 0-1.271-.29v.001ZM24.043 8.032a.13.13 0 0 1-.127-.198l1.593-2.504a1.666 1.666 0 0 0-.489-2.277L21.647.837l-1.73 2.753a.13.13 0 0 1-.22-.138l1.8-2.865a.13.13 0 0 1 .182-.039l3.484 2.289a1.926 1.926 0 0 1 .565 2.632l-1.593 2.504a.13.13 0 0 1-.092.06v-.001Z" fill="#000"/></g><defs><filter id="filter0_d_75_517" x="2.208" y=".527" width="24.083" height="30.78" filterUnits="userSpaceOnUse" color-interpolation-filters="sRGB"><feFlood flood-opacity="0" result="BackgroundImageFix"/><feColorMatrix in="SourceAlpha" values="0 0 0 0 0 0 0 0 0 0 0 0 0 0 0 0 0 0 127 0" result="hardAlpha"/><feOffset dy="2"/><feComposite in2="hardAlpha" operator="out"/><feColorMatrix values="0 0 0 0 0 0 0 0 0 0 0 0 0 0 0 0 0 0 0.25 0"/><feBlend in2="BackgroundImageFix" result="effect1_dropShadow_75_517"/><feBlend in="SourceGraphic" in2="effect1_dropShadow_75_517" result="shape"/></filter></defs></svg>