<svg width="135" height="280" fill="none" xmlns="http://www.w3.org/2000/svg"><path d="M76.522 165.971 37 270.5l110.769-12.464 11.6-106.307-82.847 14.242Z" fill="#fff"/><path d="M41.372 259.451a.395.395 0 0 1-.446-.527l35.227-93.092a.396.396 0 0 1 .302-.25l82.793-14.511a.396.396 0 0 1 .464.388l.397 89.904a.396.396 0 1 1-.792.004l-.394-89.437-82.11 14.392-35.147 92.881a.4.4 0 0 1-.294.248Z" fill="#000"/><path d="M155.444 166.733s-44.754 25.705-96.965 1.702l7.462-24.924-20.321-16.657 14.308-16.218a49.47 49.47 0 0 1 37.228-16.73c11.558.026 25.566.665 37.385 2.973a42.334 42.334 0 0 1 25.69 16.04l9.224 12.226-14.009 41.586-.002.002Z" fill="#FFE004"/><path d="M66.018 143.898a.395.395 0 0 1-.455-.499l6.436-21.973a7.132 7.132 0 0 0-.148-4.432l-1.508-4.11a.396.396 0 0 1 .742-.272l1.508 4.109a7.929 7.929 0 0 1 .165 4.927l-6.436 21.973a.396.396 0 0 1-.304.277Z" fill="#000"/><path d="M181.329 128.168 79.182 182.281l35.869 67.679 102.147-54.113-35.869-67.679Z" fill="#E83770"/><path d="m153.063 154.639 17.562 27.918-21.905 45.911s-15.913 1.009-24.622-1.628c-8.711-2.638-9.675 7.69 6.757 12.017l-6.233 6.032-6.323 3.351s12.32 18.029 39.771 6.689c19.992-8.26 42.109-50.754 42.164-68.032.041-12.748-22.848-50.008-22.848-50.008l-24.322 17.752-.001-.002Z" fill="#D3AB8D"/><path d="M148.504 258.283c-9.304 1.832-16.236.071-20.786-2.09-6.533-3.1-9.62-7.544-9.749-7.731a.395.395 0 0 1 .142-.573l6.273-3.324 5.696-5.51c-8.058-2.265-11.7-5.964-12.415-8.719-.339-1.305-.063-2.468.774-3.273 1.183-1.136 3.286-1.354 5.773-.602 7.976 2.415 22.262 1.734 24.251 1.626l21.711-45.506-17.446-27.733a.395.395 0 0 1 .101-.529l24.32-17.751a.392.392 0 0 1 .311-.068c.108.02.203.086.261.18.937 1.526 22.945 37.502 22.905 50.217-.058 17.71-22.542 60.189-42.409 68.397-3.483 1.439-6.722 2.4-9.715 2.99l.002-.001Zm-29.614-9.911c.875 1.115 3.903 4.618 9.207 7.126 5.863 2.771 15.798 4.86 29.82-.934 19.637-8.113 41.865-50.142 41.921-67.669.039-11.822-20.199-45.536-22.566-49.435l-23.676 17.281 17.365 27.605c.071.114.08.259.021.38l-21.907 45.911a.396.396 0 0 1-.333.225c-.159.009-16.083.984-24.762-1.644-2.204-.667-4.024-.515-4.995.417-.623.598-.821 1.487-.557 2.504.677 2.614 4.325 6.178 12.524 8.337a.394.394 0 0 1 .175.666l-6.235 6.031a.413.413 0 0 1-.09.065l-5.915 3.135.003-.001Z" fill="#000"/><path d="M150.499 159.409c.319.311 21.687-11.686 30.841-22.763 0 0-9.988-17.526-28.845-31.584l-16.939 30.319 14.943 24.028Z" fill="#FFE004"/><path d="m53.817 133.101 10.888 9.574s-12.032 30.627-35.032 21.878c-26.73-10.168 2.17-68.702 2.17-68.702S16.06 77.777 16.514 73.567c.454-4.21 9.395 4.283 9.395 4.283s-12.31-14.196-9.295-17.89c3.015-3.696 13.93 12.66 13.93 12.66s-10.539-16.609-7.56-19.941c2.979-3.33 17.778 19.32 17.778 19.32s-9.373-16.29-6.876-19.213C36.38 49.864 51.919 73.68 51.919 73.68s4.089-10.495 6.706-10.751c2.617-.257 4.57 1.447 3.828 10.5-.655 7.984-8.636 59.672-8.636 59.672Z" fill="#D3AB8D"/><path d="M41.67 166.116c-3.92.772-7.994.382-12.137-1.195-4.603-1.75-7.88-5.038-9.739-9.769-3.255-8.284-2.272-20.819 2.92-37.255 3.524-11.158 7.9-20.404 8.66-21.985-1.81-2.085-15.7-18.25-15.254-22.389.1-.928.572-1.288.948-1.428 1.291-.47 3.71 1.025 5.737 2.584-3.541-4.557-8.769-12.187-6.5-14.971.391-.48.929-.715 1.558-.687 2.265.108 5.805 3.89 8.622 7.41-2.77-5.177-5.717-11.873-3.797-14.018.303-.337.719-.496 1.201-.461 2.913.22 9.072 8.168 13.204 13.98-2.475-5.04-5.127-11.513-3.51-13.405.235-.276.563-.409.949-.384 3.608.232 14.706 16.75 17.3 20.684 1.01-2.472 4.188-9.795 6.626-10.275.044-.008.084-.015.128-.02 1.179-.115 2.09.16 2.784.844 1.453 1.43 1.922 4.634 1.474 10.081-.65 7.908-8.557 59.184-8.637 59.701a.395.395 0 1 1-.78-.121c.078-.516 7.982-51.765 8.63-59.644.422-5.126.017-8.218-1.24-9.454-.525-.515-1.21-.713-2.154-.62-1.713.17-4.829 6.53-6.376 10.501a.396.396 0 0 1-.7.072c-5.437-8.333-14.48-20.793-17.105-20.962-.17-.01-.247.049-.297.108-1.698 1.988 3.208 12.308 6.919 18.758a.394.394 0 0 1-.675.413c-3.483-5.33-13.254-19.22-16.6-19.473-.24-.02-.414.045-.551.2-2.28 2.548 4.713 14.916 7.6 19.465a.395.395 0 0 1-.662.43c-2.385-3.572-9.26-12.877-12.39-13.025-.383-.018-.671.108-.907.396-2.3 2.82 5.925 13.503 9.287 17.383a.396.396 0 0 1-.572.546c-2.45-2.327-6.886-5.815-8.294-5.3-.09.033-.367.135-.434.77-.358 3.314 10.876 16.992 15.236 21.983.106.12.127.291.057.435-.194.393-19.282 39.461-11.668 58.838 1.774 4.516 4.896 7.651 9.281 9.319 9.372 3.566 18.02 1.024 25.707-7.55 5.769-6.435 8.787-14.026 8.818-14.101a.395.395 0 0 1 .736.288c-.031.078-3.102 7.799-8.965 14.34-4.431 4.945-9.304 7.947-14.437 8.958v.005Z" fill="#000"/><path d="M42.405 85.656a.393.393 0 0 1-.421-.58 23.954 23.954 0 0 1 6.723-7.59l.041-.03c1.02-.744 2.174-1.588 2.194-2.724a.397.397 0 0 1 .791.015c-.028 1.527-1.409 2.536-2.519 3.347l-.041.03a23.204 23.204 0 0 0-6.5 7.338.394.394 0 0 1-.27.196l.002-.002ZM35.761 79.355a.394.394 0 0 1-.386-.142l-4.209-5.29a.395.395 0 1 1 .619-.493l4.208 5.29a.395.395 0 0 1-.232.635ZM30.844 83.039a.398.398 0 0 1-.389-.143 27.372 27.372 0 0 0-3.773-3.93.396.396 0 0 1 .514-.601 28.265 28.265 0 0 1 3.88 4.045.395.395 0 0 1-.235.632l.003-.003ZM52.888 142.757a.395.395 0 0 1-.47-.428l.873-8.341a.395.395 0 1 1 .787.081l-.874 8.341a.394.394 0 0 1-.318.346l.002.001ZM125.491 73.057s3.404 2.951 10.067-1.982c11.298-8.367 13.62-38.172-16.657-43.48-16.935-2.966-39.945 10.715-32.18 31.44 9.528 25.431 13.796 14.61 13.796 14.61l24.975-.59-.001.002Z" fill="#000"/><path d="M100.136 25.995c-4.124-1.82-5.991-6.64-4.174-10.766a8.157 8.157 0 0 1 10.759-4.174c4.124 1.82 7.703 7.397 5.884 11.521-1.819 4.126-8.346 5.24-12.47 3.42l.001-.001Z" fill="#000"/><path d="m100.982 80.99 4.607 11.82s-18.213 19.128 5.232 21.617c23.444 2.488 33.514-14.298 33.514-14.298l-9.455-4.626-10.852-26.839-23.048 12.324.002.002Z" fill="#D3AB8D"/><path d="M144.412 100.517a.399.399 0 0 1-.25-.033l-9.456-4.627a.397.397 0 0 1-.193-.207l-10.685-26.43-22.35 11.952 4.48 11.492a.395.395 0 1 1-.738.288l-4.606-11.818a.393.393 0 0 1 .181-.492l23.048-12.324a.398.398 0 0 1 .553.2l10.795 26.699 9.32 4.56a.393.393 0 0 1 .181.527.393.393 0 0 1-.278.214l-.002-.001Z" fill="#000"/><path d="M120.175 65.362s-6.901-5.967-8.32-15.106c0 0-10.687-12.174-20.937-2.61 0 0-10.898 21.824-3.757 36.599 7.549 15.618 26.47 9.923 35.417-6.682 0 0 11.813-1.12 12.659-10.963.845-9.842-10.1-11.315-15.062-1.238Z" fill="#D3AB8D"/><path d="M103.855 93.49a16.81 16.81 0 0 1-3.619.325c-5.793-.128-10.563-3.465-13.433-9.399-7.143-14.778 3.65-36.725 3.76-36.946.02-.043.05-.08.084-.112 2.852-2.661 6.012-3.925 9.389-3.758 6.721.334 11.898 6.148 12.116 6.396a.395.395 0 0 1 .092.2c1.189 7.666 6.374 13.13 7.816 14.521 2.988-5.65 7.715-7.29 10.922-6.398 3.229.9 5.011 4.084 4.647 8.315-.8 9.31-11.178 11.078-12.804 11.296-4.523 8.285-11.802 14.149-18.972 15.56h.002ZM91.239 47.885c-.635 1.309-10.51 22.146-3.724 36.186 2.732 5.654 7.255 8.833 12.737 8.952 8.006.174 16.838-6.114 21.976-15.649a.402.402 0 0 1 .31-.206c.114-.01 11.496-1.21 12.304-10.602.328-3.827-1.23-6.696-4.07-7.486-2.992-.834-7.474.833-10.242 6.457a.4.4 0 0 1-.276.214h-.002a.395.395 0 0 1-.336-.09c-.07-.06-6.97-6.116-8.434-15.226-.656-.71-5.525-5.75-11.49-6.045-3.133-.155-6.078 1.02-8.752 3.497v-.002Z" fill="#000"/><path d="M121.786 71.675a.395.395 0 0 1-.417-.587 11.371 11.371 0 0 1 6.139-4.97.396.396 0 1 1 .248.751 10.583 10.583 0 0 0-5.707 4.62.39.39 0 0 1-.265.187h.002ZM110.986 103.695a.396.396 0 0 1-.429-.208l-5.321-10.5a.396.396 0 0 1 .706-.358l5.32 10.5a.396.396 0 0 1-.276.566ZM138.487 35.584c-4.721-4.94-4.546-12.775.391-17.496 4.936-4.724 12.764-4.546 17.486.395 4.722 4.94 6.505 14.823 1.568 19.546-4.936 4.724-14.724 2.497-19.444-2.444l-.001-.002Z" fill="#000"/></svg>