<svg width="24" height="28" fill="none" xmlns="http://www.w3.org/2000/svg"><g filter="url('#filter0_d_75_538')"><path d="M.568 8.029C2.534 1.942 9.06-1.4 15.145.565c6.088 1.963 9.428 8.487 7.461 14.571l-3.009 9.316a1.789 1.789 0 0 1-2.254 1.154l-9.317-3.005C1.94 20.638-1.4 14.114.566 8.03l.002-.001Zm14.095 10.456a7.819 7.819 0 0 0 3.57-11.055c-1.988-3.442-6.332-4.843-9.96-3.213a7.82 7.82 0 0 0-3.57 11.056c1.99 3.441 6.333 4.842 9.96 3.212Z" fill="#38A13A"/></g><defs><filter id="filter0_d_75_538" x=".001" y=".002" width="23.169" height="27.692" filterUnits="userSpaceOnUse" color-interpolation-filters="sRGB"><feFlood flood-opacity="0" result="BackgroundImageFix"/><feColorMatrix in="SourceAlpha" values="0 0 0 0 0 0 0 0 0 0 0 0 0 0 0 0 0 0 127 0" result="hardAlpha"/><feOffset dy="2"/><feComposite in2="hardAlpha" operator="out"/><feColorMatrix values="0 0 0 0 0 0 0 0 0 0 0 0 0 0 0 0 0 0 0.25 0"/><feBlend in2="BackgroundImageFix" result="effect1_dropShadow_75_538"/><feBlend in="SourceGraphic" in2="effect1_dropShadow_75_538" result="shape"/></filter></defs></svg>